<?xml version="1.0" encoding="utf-8"?>
<!-- Generator: Adobe Illustrator 22.1.0, SVG Export Plug-In . SVG Version: 6.00 Build 0)  -->
<svg version="1.1" id="Layer_1" xmlns="http://www.w3.org/2000/svg" xmlns:xlink="http://www.w3.org/1999/xlink" x="0px" y="0px"
	 viewBox="0 0 101 100" style="enable-background:new 0 0 101 100;" xml:space="preserve">
<style type="text/css">
	.st0{fill:url(#SVGID_1_);}
	.st1{fill:#E82121;}
	.st2{fill:#FFFFFF;}
</style>
<g>
	<linearGradient id="SVGID_1_" gradientUnits="userSpaceOnUse" x1="1.9822" y1="47.3808" x2="98.3862" y2="47.3808">
		<stop  offset="0" style="stop-color:#FFAE39"/>
		<stop  offset="1" style="stop-color:#DB6640"/>
	</linearGradient>
	<path class="st0" d="M3.2,40.7C8.5,21.3,20.7,8.9,40.3,4.2c27.7-6.6,56.3,14.9,58,43.4c0.8,13-2.7,24.7-11.1,34.6
		c-7.4,8.7-17.5,11.6-27.4,8.1c-4-1.4-5.6-3.5-4.8-6.4c0.8-2.9,4.2-4.5,7.8-4c2.6,0.4,4.8,1.9,7.2,2.8c3.7,1.4,6.1,0.8,7.1-1.8
		c1.1-2.7-0.9-5.9-4.3-7.1c-2.4-0.8-4.9-0.6-7.3-0.3c-1.8,0.2-3.7,0.4-5.5,0.4c-1.6,0-3-0.6-3.8-2.2c-0.8-1.6,0-3,0.9-4.3
		c2.2-3,5.4-3.5,8.8-3.2c5,0.4,9.6,2.3,14.3,3.7c1.7,0.5,3.4,0.8,5.2,0.4c1.9-0.5,3.6-1.5,3.4-3.7c-0.2-2.1-1.8-3-4-3.1
		c-3.1,0-6.2,0.3-9.2-0.6c-1.3-0.4-3-0.7-2.8-2.3c0.1-1.6,1.9-1.7,3.2-1.8c3.2-0.3,6.4,0.2,9.5-0.6c1.7-0.5,3.3-1.1,4.3-2.7
		c1.3-2.2,0.2-4.2-2.3-4.3c-2.4-0.2-4,1.5-5.9,2.4c-1.6,0.7-3.5,2.6-4.9,0.8c-1.5-2,0.8-3.5,2.1-4.8c1.1-1.1,2.4-2,3.5-3
		c2.5-2.3,4.2-5.1,4.9-8.4c0.5-2.4,0.6-5-2.2-6.1c-2.7-1-4.2,1.1-5.2,3.2c-1.7,3.8-3.2,7.8-4.8,11.7c-1.6,3.7-3.7,7.1-7.4,9.2
		c-1.2,0.6-2.5,1.5-3.7,0.4c-1.2-1.1-0.4-2.5,0.2-3.7c0.5-1,1.2-1.9,1.7-3c1-2.1,1.3-4.2-0.9-5.8c-2.2-1.6-4.5-1.3-6.5,0.4
		c-1.6,1.3-2.2,3.2-2.6,5.1c-0.5,2.5-0.8,5.1-1.5,7.6c-0.7,2.4-1.8,4.9-4.8,4.8c-3.2-0.1-3.6-2.9-4-5.4c-0.5-3.1-0.2-6.2,0.6-9.2
		c1.7-6.3,6.6-9.5,13.3-8.9c2.2,0.2,4.5,0.3,6.8,0.3c1.6,0,3.3-0.4,3.5-2.4c0.1-1.9-1.6-2.5-3.1-2.9c-1.7-0.4-3.5-0.5-5.2-0.8
		c-1.3-0.2-2.3-0.8-2.6-2.3c-0.3-1.4,0.4-2.4,1.4-3.2c2.1-1.7,4.6-2.6,7.2-3.3c1.8-0.4,3.6-0.8,5.1-2.1c0.9-0.8,1.5-1.7,1.2-3
		c-0.3-1.3-1.3-1.8-2.5-2c-2.3-0.4-4.4,0.4-6.5,1.3c-3.7,1.7-4.7,1.3-6.8-2c-0.3-0.5-0.6-1.1-1-1.6c-1.7-2.4-4.1-3-6.1-1.6
		c-2,1.3-2.3,3.8-0.7,6.3c0.6,1,1.4,1.8,2,2.7c1.8,3,1.9,6.1,0.3,9.1c-1.6,3-4.3,3.9-7.5,3.9c-2.1,0-4.1-0.4-5.9-1.5
		c-3.9-2.2-5-6.1-2.6-10c0.7-1.1,1.6-2.2,2.2-3.3c0.8-1.6,0.5-3.3-1-4.4c-1.5-1.2-3.1-0.8-4.5,0.3c-1.7,1.3-2.7,3.2-3.1,5.2
		c-0.9,4.1-3.1,5.7-7.2,5.1c-1.3-0.2-2.7,0.1-3.9,0.7c-1.4,0.7-2.6,1.8-2.4,3.6c0.2,1.9,1.6,2.5,3.2,2.7c1.1,0.1,2.3,0.1,3.4,0.1
		c6.7-0.3,11.4,2.9,14.8,8.3c1,1.6,1.6,3.5,0.2,5.2c-1.4,1.7-3.4,1.3-5.2,0.8c-3-0.9-5.4-2.9-7.7-5c-2.3-2-4.8-3.5-8-3.7
		c-1.7-0.1-3.3,0.3-4.6,1.4c-1.5,1.2-2.7,2.7-2.1,4.8c0.6,1.9,2.3,2.4,4.1,2.7c1.5,0.2,3.1,0.4,4.6,0.6c1.4,0.2,3,0.6,3.5,2.1
		c0.6,1.7-0.7,2.9-1.8,4c-1.1,1.1-2.4,2-3.5,3c-1.2,1.1-2.6,2.1-3.6,3.3c-1.4,1.7-2.7,3.7-1.2,5.9c1.6,2.3,4,2.3,6.4,1.6
		c2.4-0.7,3.9-2.6,5.2-4.6c1.2-1.9,2.3-3.9,3.7-5.7c2.3-2.8,5.7-3.7,8.2-2.6c1.2,0.5,2.1,1.3,2.2,2.7c0.1,1.4-0.6,2.3-1.8,3
		c-1,0.6-2.2,1.2-3.1,2c-1,0.8-1.5,2-1,3.3c0.4,1.4,1.5,2.1,3,2.3c1.7,0.2,3.3-0.1,4.9-0.4c0.9-0.2,1.8-0.4,2.7-0.5
		c3.4-0.3,5.8,1.2,5.8,3.6c0,2.3-2.6,4.2-5.7,4c-2.4-0.1-4.6-1-6.9-1.7c-3.1-1-6.2-1.5-9.4-0.6c-2.6,0.8-4.9,1.9-5.5,4.8
		c-0.5,2.3,0.5,4.2,2.4,5.7c2.3,1.8,4.9,1.9,7.5,0.6c1.7-0.8,3.2-1.8,4.8-2.8c1.6-1,3.4-1.5,5.3-1.5c2.7,0,5.2,0.6,6.1,3.6
		c0.9,3-0.3,5.2-2.9,6.8c-5.6,3.6-11.6,3.6-17.8,1.9C16.9,88,11.3,81,7,72.6c-2.1-4.3-3.5-8.8-4.4-13.4C1.8,54.8,1.8,50.4,2.3,46
		C2.6,44.4,2.7,42.4,3.2,40.7z"/>
</g>
<g>
	<path class="st1" d="M84.5,97h-15C67,97,65,95,65,92.5v0c0-2.5,2-4.5,4.5-4.5h15c2.5,0,4.5,2,4.5,4.5v0C89,95,87,97,84.5,97z"/>
	<g>
		<path class="st2" d="M71,95.2h-1.8c-0.3,0-0.4-0.1-0.5-0.2c-0.1-0.1-0.2-0.3-0.2-0.5v-4.3c0-0.3,0.1-0.4,0.2-0.5
			c0.1-0.1,0.3-0.2,0.5-0.2h1.9c0.3,0,0.5,0,0.7,0.1c0.2,0,0.4,0.1,0.5,0.2c0.1,0.1,0.3,0.2,0.4,0.3c0.1,0.1,0.2,0.3,0.2,0.4
			s0.1,0.3,0.1,0.5c0,0.6-0.3,1-0.9,1.3c0.8,0.2,1.1,0.7,1.1,1.4c0,0.3-0.1,0.6-0.2,0.9s-0.4,0.4-0.7,0.6c-0.2,0.1-0.4,0.1-0.6,0.2
			S71.3,95.2,71,95.2z M69.7,90.4v1.5h1.1c0.3,0,0.5,0,0.7-0.1c0.2-0.1,0.3-0.2,0.4-0.3c0.1-0.1,0.1-0.2,0.1-0.4
			c0-0.3-0.1-0.5-0.3-0.6c-0.2-0.1-0.5-0.1-0.9-0.1H69.7z M70.9,92.7h-1.2v1.7h1.2c0.8,0,1.2-0.3,1.2-0.8c0-0.3-0.1-0.5-0.3-0.6
			S71.3,92.7,70.9,92.7z"/>
		<path class="st2" d="M77.2,93.4h-2.1c0,0.2,0.1,0.5,0.1,0.6c0.1,0.2,0.2,0.3,0.4,0.4c0.2,0.1,0.3,0.1,0.5,0.1c0.1,0,0.2,0,0.3,0
			s0.2-0.1,0.3-0.1c0.1-0.1,0.2-0.1,0.3-0.2c0.1-0.1,0.2-0.2,0.3-0.3c0.1,0,0.1-0.1,0.2-0.1c0.1,0,0.2,0,0.3,0.1
			C78,94,78,94.1,78,94.2c0,0.1,0,0.2-0.1,0.3c-0.1,0.1-0.2,0.3-0.3,0.4s-0.3,0.2-0.6,0.3s-0.5,0.1-0.8,0.1c-0.7,0-1.2-0.2-1.6-0.6
			c-0.4-0.4-0.6-0.9-0.6-1.6c0-0.3,0-0.6,0.1-0.9s0.2-0.5,0.4-0.7s0.4-0.3,0.7-0.4c0.3-0.1,0.6-0.2,0.9-0.2c0.4,0,0.8,0.1,1.1,0.3
			c0.3,0.2,0.5,0.4,0.7,0.7s0.2,0.6,0.2,0.9c0,0.3-0.1,0.4-0.2,0.5C77.7,93.4,77.5,93.4,77.2,93.4z M75.1,92.8H77
			c0-0.4-0.1-0.6-0.3-0.8c-0.2-0.2-0.4-0.3-0.7-0.3c-0.3,0-0.5,0.1-0.7,0.3C75.2,92.2,75.1,92.4,75.1,92.8z"/>
		<path class="st2" d="M79,91.1h0.1v-0.6c0-0.2,0-0.3,0-0.4s0-0.2,0.1-0.3c0-0.1,0.1-0.1,0.2-0.2s0.2-0.1,0.3-0.1
			c0.1,0,0.3,0.1,0.4,0.2c0.1,0.1,0.1,0.2,0.1,0.2s0,0.2,0,0.4v0.7h0.4c0.2,0,0.3,0,0.3,0.1s0.1,0.2,0.1,0.3c0,0.1-0.1,0.2-0.2,0.3
			s-0.3,0.1-0.5,0.1h-0.2v2c0,0.2,0,0.3,0,0.4s0,0.2,0.1,0.2s0.1,0.1,0.2,0.1c0.1,0,0.1,0,0.3,0s0.2,0,0.3,0c0.1,0,0.2,0,0.2,0.1
			s0.1,0.2,0.1,0.3c0,0.2-0.1,0.3-0.3,0.4s-0.5,0.1-0.8,0.1c-0.3,0-0.6-0.1-0.8-0.2s-0.3-0.3-0.3-0.5s-0.1-0.5-0.1-0.8v-2H79
			c-0.2,0-0.3,0-0.4-0.1s-0.1-0.2-0.1-0.3s0-0.2,0.1-0.3S78.9,91.1,79,91.1z"/>
		<path class="st2" d="M84.5,94.7c-0.3,0.2-0.5,0.4-0.7,0.5s-0.5,0.2-0.8,0.2c-0.3,0-0.5-0.1-0.7-0.2s-0.4-0.3-0.5-0.4
			s-0.2-0.4-0.2-0.6c0-0.3,0.1-0.5,0.3-0.7s0.4-0.3,0.8-0.4c0.1,0,0.2-0.1,0.5-0.1s0.5-0.1,0.7-0.2s0.4-0.1,0.6-0.2
			c0-0.3-0.1-0.5-0.2-0.6s-0.3-0.2-0.6-0.2c-0.3,0-0.5,0-0.6,0.1s-0.3,0.2-0.4,0.3s-0.2,0.3-0.2,0.3s-0.1,0.1-0.3,0.1
			c-0.1,0-0.2,0-0.3-0.1s-0.1-0.2-0.1-0.3c0-0.2,0.1-0.4,0.2-0.5s0.3-0.3,0.6-0.4s0.6-0.2,1.1-0.2c0.5,0,0.8,0.1,1.1,0.2
			s0.5,0.3,0.6,0.5s0.2,0.6,0.2,1c0,0.3,0,0.5,0,0.6s0,0.4,0,0.6c0,0.2,0,0.4,0.1,0.6s0.1,0.4,0.1,0.4c0,0.1-0.1,0.2-0.2,0.3
			s-0.2,0.1-0.3,0.1c-0.1,0-0.2-0.1-0.3-0.2S84.6,94.9,84.5,94.7z M84.4,93.2c-0.2,0.1-0.4,0.1-0.7,0.2s-0.5,0.1-0.6,0.1
			s-0.2,0.1-0.3,0.2s-0.2,0.2-0.2,0.4c0,0.2,0.1,0.3,0.2,0.4s0.3,0.2,0.5,0.2c0.2,0,0.4,0,0.6-0.1s0.3-0.2,0.4-0.4
			c0.1-0.2,0.1-0.4,0.1-0.8V93.2z"/>
	</g>
</g>
</svg>
