<?xml version="1.0" encoding="utf-8"?>
<!-- Generator: Adobe Illustrator 22.1.0, SVG Export Plug-In . SVG Version: 6.00 Build 0)  -->
<svg version="1.1" id="Layer_1" xmlns="http://www.w3.org/2000/svg" xmlns:xlink="http://www.w3.org/1999/xlink" x="0px" y="0px"
	 viewBox="0 0 1500 700" style="enable-background:new 0 0 1500 700;" xml:space="preserve">
<style type="text/css">
	.st0{fill:#FFFFFF;}
</style>
<path class="st0" d="M-7-7l1516-13l-5,729c0,0-603.2,24.6-684.4-6.3c-32.7-12.4-45.1-30.2-37.7-53.8c7.4-23.5,35.7-36.4,65.2-30.7
	c21.4,4.1,39,16.5,58.5,24.6c29.9,12.3,50.2,8.1,59.3-12.9c9.7-22.4-5.7-49.2-33.6-59.3c-19.8-7.2-40-6.1-60.4-4.2
	c-15.2,1.4-30.5,2-45.7,1.7c-13.5-0.3-24.9-6.1-30.7-19.1c-6.1-13.6,0.5-24.9,8.6-35.1c19.2-24,45.3-27.4,73.7-24
	c41,4.9,78.4,21.8,117,34.5c14.1,4.6,28.3,7.5,42.5,4.5c15.8-3.4,30.4-11.8,29.1-30.1c-1.2-17.6-14.4-25.5-32-26.3
	c-25.4-1.1-51.1,0.9-75.8-7.5c-10.5-3.6-24.2-6.6-22.7-19.8c1.5-13.3,15.9-13.4,26.8-14c26.2-1.7,52.6,3.3,78.8-2.6
	c14.5-3.3,27.7-8.5,36.1-21.5c11.2-17.4,2.7-34.3-18-36.3c-19.4-1.9-33.2,11-49.4,18c-13.1,5.6-29.6,21-41,5
	c-12.1-17,7.4-28.3,18.4-39c9.1-8.8,20-15.8,29.7-24c21.5-18,36.4-40.6,42.8-67.8c4.7-19.6,5.9-41.5-16.4-50.7
	c-22.1-9.1-35.2,8.2-43.6,25.4c-15.3,31.2-28.1,63.6-42.9,95.1c-14.3,30.4-32.6,57.9-63.6,74c-9.7,5-21.2,11.6-30.7,2.4
	c-9.9-9.6-2.3-20.6,2.9-30.3c4.4-8.2,10.2-15.7,14.5-23.9c9-17.2,11.7-34.8-5.6-48.3c-17.8-13.9-36.7-11.7-53.9,1.9
	c-13.2,10.5-19.1,25.5-22.6,41.7c-4.4,20.8-8.1,41.8-14.2,62c-6.1,20.1-16.4,40.4-41,38.6c-26.1-1.9-29.2-25-31.8-45.5
	c-3.2-25.7,0-51.1,7.6-75.6c15.9-51.6,56.9-76.5,112.2-70.2c18.5,2.1,37.2,4,55.8,4.4c13.1,0.3,27.6-2.8,29.1-18.5
	c1.5-15.5-12.7-21.2-24.9-24.7c-13.8-3.9-28.4-5-42.5-7.9c-10.7-2.2-19-7.5-20.9-19.4c-1.9-11.5,3.5-19.8,12.1-26.3
	c18-13.6,38.7-20.7,60.7-25c14.9-3,30.2-5.5,42.6-15.6c7.7-6.3,13-13.7,10.5-24.2c-2.4-10.5-10.2-15-20.1-17
	c-19.3-3.9-36.7,1.8-54.2,9.3c-30.7,13.2-39.2,9.9-56-18.4c-2.6-4.4-4.9-9-7.8-13.2c-13.6-19.9-33-25.6-50.2-14.9
	c-16.9,10.5-20.1,30.4-7.5,51.7c4.7,8,11.4,14.9,16,23c14.2,24.9,14.4,50.6,0.4,75.3c-13.7,24-36.7,31.4-63.1,30.3
	c-17.3-0.7-33.5-4.8-48.5-13.8c-32-19.4-39.5-51.7-18.9-82.9c6.1-9.2,13.9-17.4,18.9-27.1c6.8-13.4,5.1-27-7-36.9
	c-12.3-10.1-25.3-7.6-37.5,1.2c-14.5,10.5-23,26-27,42.2c-8.3,33.3-27.4,46.4-60.9,40.6c-11-1.9-22.3,0.2-32.4,4.9
	c-12.1,5.6-21.8,14-21,29c0.8,16.1,12.9,20.9,26.1,23.1c9.1,1.5,18.6,1.5,27.9,1.3c55.2-1.1,93.2,26.8,120.1,72.2
	c7.9,13.4,12.7,29,0.5,42.9c-12.2,13.9-28.3,10-42.8,5.3c-24.9-8-43.7-25.7-62.5-43c-18.5-17-38.8-30.4-64.7-32.6
	c-14.1-1.2-27.2,1.2-38.5,10c-12.7,9.7-23.4,21.4-18.8,38.7c4.3,16,18.6,20.8,33.4,23.4c12.5,2.2,25.1,4.1,37.6,6.4
	c11.9,2.3,24.5,5.4,28.3,18.4c4.2,14.5-6.4,23.8-15.9,32.3c-9.5,8.5-19.9,15.9-29.8,24c-10.5,8.7-21.7,16.7-30.7,26.7
	c-12.1,13.5-23.1,29.5-11.1,48c12.5,19.3,32.4,20,52.4,14.5c20-5.5,32.8-20.4,44-36.9c10.6-15.4,20.1-31.7,32.2-45.8
	c19.4-22.6,47.6-29.5,68.5-18.9c9.6,4.8,17.1,11.3,17.7,22.9c0.6,11.7-5.8,18.9-15.3,24.3c-8.8,5-18.1,9.5-25.9,15.9
	c-8.2,6.7-12.6,16.4-9.5,27.3c3.3,11.8,11.9,18.1,24,19.7c13.7,1.8,27.1,0.2,40.6-2.1c7.5-1.3,15-3.2,22.6-3.7
	c27.9-2,48,11.4,47.1,30.9c-0.8,18.7-22.8,33.7-48.1,31.9c-19.7-1.4-37.9-9-56.2-15.8c-25.2-9.3-50.7-14.1-77.3-7
	c-21.4,5.7-41,14.3-47,37.9c-4.9,19.2,3.4,35.2,18.1,47.4c18.9,15.6,40.3,17,62.1,7.2c13.9-6.3,26.9-14.4,40.4-21.7
	c13.7-7.4,28.2-11.9,43.9-11.3c22.6,0.8,43,6.3,49.6,31.3c6.5,24.7-7.9,37.7-25.4,55.5C655.2,724.9,547,719,547,719L-8,709L-7-7z"/>
</svg>
