<?xml version="1.0" encoding="utf-8"?>
<!-- Generator: Adobe Illustrator 22.1.0, SVG Export Plug-In . SVG Version: 6.00 Build 0)  -->
<svg version="1.1" id="Layer_1" xmlns="http://www.w3.org/2000/svg" xmlns:xlink="http://www.w3.org/1999/xlink" x="0px" y="0px"
	 viewBox="0 0 906 700" style="enable-background:new 0 0 906 700;" xml:space="preserve">
<style type="text/css">
	.st0{fill:#FFFFFF;}
</style>
<path class="st0" d="M588.3-132L-301.1,21.1l69.9,725.7c0,0,603-29.2,681.1-67.2c31.4-15.3,42.2-34.1,32.7-56.9
	c-9.4-22.7-38.8-33-67.6-24.8c-20.9,6-37.3,19.9-56.1,29.7c-28.7,14.9-49.2,12.6-60.2-7.6c-11.6-21.4,1.3-49.5,28.2-62.1
	c19.1-9,39.3-9.7,59.8-9.6c15.2,0.1,30.5-0.8,45.7-2.4c13.5-1.5,24.2-8.3,28.9-21.8c4.9-14.1-2.7-24.8-11.7-34.2
	c-21.3-22.2-47.5-23.3-75.6-17.3c-40.4,8.5-76.1,28.7-113.5,44.8c-13.6,5.9-27.5,10-42,8.3c-16-1.9-31.3-9.1-31.7-27.4
	c-0.4-17.7,12.1-26.7,29.6-29c25.2-3.4,51-3.7,74.9-14.2c10.2-4.5,23.6-8.7,20.9-21.7c-2.7-13.1-17-11.9-27.9-11.6
	c-26.3,0.7-52.1,8-78.7,4.4c-14.8-2-28.4-6-37.9-18.2c-12.7-16.4-5.8-33.9,14.6-37.8c19.2-3.6,34.1,8,50.8,13.5
	c13.6,4.4,31.4,18.2,41.3,1.3c10.5-18-9.9-27.5-21.8-37.2c-9.9-8-21.3-14-31.8-21.3c-23-16-39.8-37.2-48.7-63.7
	c-6.4-19.1-9.5-40.8,11.8-52c21.2-11.1,35.8,5,45.7,21.4c18,29.7,33.7,60.9,51.2,90.9c16.9,29,37.7,54.8,70,68
	c10.1,4.1,22.1,9.7,30.8-0.4c9-10.5,0.4-20.8-5.6-29.9c-5.2-7.8-11.5-14.7-16.6-22.6c-10.5-16.3-14.8-33.6,1.3-48.6
	c16.5-15.4,35.6-14.9,53.9-2.9c14.1,9.2,21.3,23.7,26.2,39.5c6.2,20.3,11.8,40.9,19.7,60.5c7.9,19.4,19.9,38.8,44.3,34.8
	c25.8-4.2,26.9-27.5,27.6-48.2c0.9-25.8-4.6-50.9-14.3-74.7c-20.4-49.9-63.5-71.2-118-59.9c-18.3,3.8-36.7,7.3-55.2,9.4
	c-13,1.5-27.8-0.3-30.7-15.9c-2.9-15.4,10.8-22.3,22.6-26.8c13.4-5.1,27.8-7.5,41.6-11.6c10.4-3.1,18.2-9.2,19.1-21.2
	c0.9-11.6-5.3-19.4-14.4-25.1c-19.2-11.9-40.4-17.1-62.7-19.5c-15.1-1.6-30.5-2.8-43.8-11.8c-8.3-5.6-14.1-12.5-12.6-23.1
	c1.5-10.6,8.9-15.8,18.5-18.7c18.9-5.6,36.7-1.4,54.8,4.5c31.7,10.4,40,6.4,54.2-23.4c2.2-4.6,4.1-9.4,6.6-13.8
	c11.8-21.1,30.5-28.5,48.6-19.4c17.8,9,22.7,28.5,12.1,50.8c-4,8.4-10,15.9-13.9,24.3c-12,26-9.8,51.7,6.3,75
	c15.8,22.7,39.3,28,65.5,24.6c17.2-2.2,33-7.7,47-18.1c30.1-22.2,34.7-55,11.4-84.3c-6.9-8.6-15.4-16.1-21.2-25.3
	c-8-12.7-7.5-26.5,3.6-37.4c11.3-11.1,24.5-9.9,37.5-2.1c15.4,9.2,25.2,23.9,30.7,39.6c11.2,32.4,31.4,43.8,64.3,35
	c10.8-2.9,22.2-1.8,32.7,2c12.5,4.5,22.9,12,23.5,27c0.6,16.2-11,22-23.9,25.3c-9,2.3-18.4,3.1-27.6,3.8
	c-55.1,3.8-90.5,35-113.2,82.6c-6.7,14-10,30,3.3,42.7c13.4,12.7,29.1,7.4,43.1,1.5c24-10.2,41.2-29.5,58.4-48.4
	c16.9-18.6,35.9-33.7,61.6-38.2c13.9-2.4,27.2-1.2,39.3,6.5c13.5,8.6,25.2,19.3,22.1,36.9c-2.9,16.4-16.7,22.4-31.2,26.3
	c-12.3,3.3-24.7,6.3-36.9,9.8c-11.6,3.3-23.9,7.5-26.6,20.9c-2.9,14.8,8.5,23.2,18.7,30.8c10.2,7.6,21.3,14,31.8,21.3
	c11.2,7.7,23.1,14.7,33,23.9c13.3,12.4,25.6,27.3,15.3,46.9c-10.7,20.3-30.5,22.8-50.9,19.1c-20.4-3.7-34.5-17.4-47.1-32.8
	c-11.9-14.4-22.8-29.8-36.1-42.7c-21.3-20.8-50.1-25.1-69.9-12.8c-9.1,5.6-16,12.7-15.6,24.4c0.4,11.7,7.4,18.3,17.4,22.8
	c9.2,4.2,18.9,7.9,27.2,13.5c8.8,5.9,14,15.2,11.9,26.4c-2,10.6-10.4,18.9-20.9,21.5c-13.9,3.4-27.8,3-41.9,1.8
	c-7.6-0.6-15.2-1.9-22.8-1.7c-28,0.5-46.8,15.6-44.2,34.9c2.5,18.6,25.7,31.5,50.7,27.5c19.5-3.1,37-12.4,54.6-20.7
	c24.3-11.5,49.2-18.6,76.4-13.9c21.8,3.8,42.1,10.6,50.2,33.6c6.6,18.6-0.2,35.4-13.8,48.8c-17.4,17.2-38.7,20.5-61.2,12.7
	c-14.4-5-28.1-11.9-42.1-18c-14.3-6.2-29.1-9.3-44.7-7.4c-22.5,2.8-42.3,10.1-46.6,35.6c-4.3,25.2,11.2,36.9,30.2,53
	c41.4,35.2,148.6,19.7,148.6,19.7l0,0c172.8-118,210.5-357.2,82.6-522.7L588.3-132z"/>
</svg>
