<?xml version="1.0" encoding="utf-8"?>
<!-- Generator: Adobe Illustrator 24.2.3, SVG Export Plug-In . SVG Version: 6.00 Build 0)  -->
<svg version="1.1" id="Layer_1" xmlns="http://www.w3.org/2000/svg" xmlns:xlink="http://www.w3.org/1999/xlink" x="0px" y="0px"
	 viewBox="0 0 1600 400" style="enable-background:new 0 0 1600 400;" xml:space="preserve">
<style type="text/css">
	.st0{fill:#FCE4E0;}
	.st1{fill:#FFFFFF;}
</style>
<g>
	<rect class="st0" width="1600" height="400"/>
</g>
<polygon points="1111.97,200.08 1111.97,198.98 1111.97,198.77 821.08,160.11 821.08,238.95 1111.97,200.29 "/>
<polygon class="st1" points="920.75,139.67 881.12,100.04 849.28,131.88 849.28,86.85 793.24,86.85 793.24,131.88 761.4,100.04 
	721.77,139.67 781.63,199.53 721.77,259.39 761.4,299.02 793.24,267.18 793.24,312.21 849.28,312.21 849.28,267.18 881.12,299.02 
	920.75,259.39 860.89,199.53 "/>
<polygon points="780.85,154.76 487.32,116.31 487.32,166.28 775.32,198.74 775.32,198.74 775.32,199.53 775.32,200.32 
	775.32,200.32 487.32,232.78 487.32,282.75 780.85,244.29 821.08,238.95 821.08,160.11 "/>
</svg>
