<?xml version="1.0" encoding="utf-8"?>
<!-- Generator: Adobe Illustrator 24.2.3, SVG Export Plug-In . SVG Version: 6.00 Build 0)  -->
<svg preserveAspectRatio="none" version="1.1" id="Layer_1" xmlns="http://www.w3.org/2000/svg" xmlns:xlink="http://www.w3.org/1999/xlink" x="0px" y="0px"
	 viewBox="0 0 390 121.5" style="enable-background:new 0 0 390 121.5;" xml:space="preserve">
<style type="text/css">
	.st0{fill-rule:evenodd;clip-rule:evenodd;}
	.st1{fill-rule:evenodd;clip-rule:evenodd;fill:#90AF90;}
	.st2{fill-rule:evenodd;clip-rule:evenodd;fill:#FFC9C2;}
</style>
<g id="Group_2019" transform="translate(4683 95)">
	<path id="Path_2261" class="st0" d="M-4628.5-57.2v0.3l0,0l-55.1,6.1v9.4l56.1-7.2l62.2-8.3v-0.3l-62.2-8.3l-56.1-7.2v9.4
		C-4683.6-63.3-4628.5-57.2-4628.5-57.2z"/>
	<path id="Path_2264" class="st0" d="M-4492.2-57.2v0.3l0,0l-54.1,6.1v9.4l55.1-7.2l62.2-8.3v-0.3l-62.2-8.3l-55.1-7.2v9.4
		C-4546.3-63.3-4492.2-57.2-4492.2-57.2z"/>
	<path id="Path_2271" class="st0" d="M-4356-57.2v0.3l0,0l-54.1,6.1v9.4l55.1-7.2l62.2-8.3v-0.3l-62.2-8.3l-55.1-7.2v9.4
		C-4410-63.3-4356-57.2-4356-57.2z"/>
	<path id="Path_2260" class="st1" d="M-4619.4-34v0.3l0,0l54.1,6.1v9.4l-55.1-7.2l-63.2-8.3V-34l63.2-8.3l55.1-7.2v9.4L-4619.4-34
		L-4619.4-34z"/>
	<path id="Path_2262" class="st1" d="M-4619.4-79.3v0.3l0,0l54.1,6.1v9.4l-55.1-7.2l-63.2-8.3v-0.3l63.2-8.3l55.1-7.2v9.4
		L-4619.4-79.3L-4619.4-79.3z"/>
	<path id="Path_2258" class="st1" d="M-4619.4,10.5v0.3l0,0l54.1,6.1v9.4l-55.1-7.2l-63.2-8.3v-0.3l63.2-8.3l55.1-7.2v9.4
		L-4619.4,10.5L-4619.4,10.5z"/>
	<path id="Path_2269" class="st2" d="M-4359.3-9.5v0.3l0,0l-57,6.7V7.9l58.1-7.9l65.5-9.1v-0.3l-65.5-9.1l-58.1-7.9v10.3
		L-4359.3-9.5L-4359.3-9.5z"/>
	<path id="Path_2265" class="st1" d="M-4483.1-34v0.3l0,0l54.1,6.1v9.4l-55.1-7.2l-62.2-8.3V-34l62.2-8.3l55.1-7.2v9.4L-4483.1-34
		L-4483.1-34z"/>
	<path id="Path_2263" class="st1" d="M-4483.1-79.3v0.3l0,0l54.1,6.1v9.4l-55.1-7.2l-62.2-8.3v-0.3l62.2-8.3l55.1-7.2v9.4
		L-4483.1-79.3L-4483.1-79.3z"/>
	<path id="Path_2267" class="st1" d="M-4483.1,10.5v0.3l0,0l54.1,6.1v9.4l-55.1-7.2l-62.2-8.3v-0.3l62.2-8.3L-4429-5v9.4
		L-4483.1,10.5L-4483.1,10.5z"/>
	<path id="Path_2266" class="st2" d="M-4492.2-11.7v0.3l0,0l-54.1,6.1V4l55.1-7.2l62.2-8.3v-0.3l-62.2-8.3l-55.1-7.2v9.4
		C-4546.3-17.8-4492.2-11.7-4492.2-11.7z"/>
	<path id="Path_2270" class="st1" d="M-4346.8-34v0.3l0,0l54.1,6.1v9.4l-55.1-7.2l-62.2-8.3V-34l62.2-8.3l55.1-7.2v9.4L-4346.8-34
		L-4346.8-34z"/>
	<path id="Path_2272" class="st1" d="M-4346.8-79.3v0.3l0,0l54.1,6.1v9.4l-55.1-7.2L-4410-79v-0.3l62.2-8.3l55.1-7.2v9.4
		L-4346.8-79.3L-4346.8-79.3z"/>
	<path id="Path_2268" class="st1" d="M-4346.8,10.5v0.3l0,0l54.1,6.1v9.4l-55.1-7.2l-62.2-8.3v-0.3l62.2-8.3l55.1-7.2v9.4
		L-4346.8,10.5L-4346.8,10.5z"/>
	<path id="Path_2259" class="st2" d="M-4628.5-11.7v0.3l0,0l-55.1,6.1V4l56.1-7.2l62.2-8.3v-0.3l-62.2-8.3l-56.1-7.2v9.4
		C-4683.6-17.8-4628.5-11.7-4628.5-11.7z"/>
</g>
</svg>
