<svg xmlns="http://www.w3.org/2000/svg" viewBox="0 0 86.38 32.31"><defs><style>.cls-1{fill:#1d1d1b;}</style></defs><g id="Layer_2" data-name="Layer 2"><g id="Layer_1-2" data-name="Layer 1"><path class="cls-1" d="M12.25,31.71a19.42,19.42,0,0,1-3.76.41q-4.17,0-6.33-2.24T0,23.36C0,22.69,0,21.9.11,21s.22-2.4.45-4.45H4.82c-.24,1.82-.39,3.17-.46,4s-.11,1.63-.11,2.24a3.66,3.66,0,0,0,1.17,3,6.22,6.22,0,0,0,3.84.93,21.26,21.26,0,0,0,3.84-.37,23.17,23.17,0,0,0,4-1.11l-.8-14.75,5.09-.75v11.3A20.52,20.52,0,0,1,21,25.34a6.83,6.83,0,0,1-4.65,5.19A25.59,25.59,0,0,1,12.25,31.71ZM9.16,5.41l3.6,3.64-3.6,3.61L5.55,9.05Z"/><path class="cls-1" d="M24.28.65,29.41,0l0,23.7H25.12Z"/><path class="cls-1" d="M47.74,11.73a18.52,18.52,0,0,1,1.5,7.2,5.51,5.51,0,0,1-1.16,3.53,6.92,6.92,0,0,1-3.35,2.22,16.73,16.73,0,0,1-5.35.76,12.33,12.33,0,0,1-4.28-.6,4.08,4.08,0,0,1-2.26-1.94,7.84,7.84,0,0,1-.69-3.65l0-3.75h4.37v4.4a13.34,13.34,0,0,0,3.43.31A30.55,30.55,0,0,0,43,20.07a11,11,0,0,0,2.21-.4,12.6,12.6,0,0,0-1.46-5,23.64,23.64,0,0,0-3.48-5L43.7,5.38A21.53,21.53,0,0,1,47.74,11.73Z"/><path class="cls-1" d="M60.4,19.58h5.34v5.17H64a8.13,8.13,0,0,1-2.06-.25,16.05,16.05,0,0,1-2.07-.68,13.75,13.75,0,0,1-2.24,4.48,10.41,10.41,0,0,1-3.45,3,9,9,0,0,1-4.26,1.05,12.32,12.32,0,0,1-3.09-.42V27h2.25a7.88,7.88,0,0,0,4.54-1.25,9,9,0,0,0,3-3.87L54.69,10.79l5-1.21Z"/><path class="cls-1" d="M65.74,19.58a8.18,8.18,0,0,0,2.57-.33A4.12,4.12,0,0,0,70,18.06a13.11,13.11,0,0,0,1.66-2.54l4.64-8.79,3.87,2a21.93,21.93,0,0,1,3.87,2.42,6,6,0,0,1,1.8,2.41,10,10,0,0,1,.5,3.46,11.22,11.22,0,0,1-1,4.83,8.76,8.76,0,0,1-2.79,3.49,6.37,6.37,0,0,1-3.83,1.28A5.7,5.7,0,0,1,76.17,26a7.44,7.44,0,0,1-2.26-1.68,8.59,8.59,0,0,1-1.63-2.49A8.47,8.47,0,0,1,69.4,24a8.59,8.59,0,0,1-3.66.76H64.16V19.58Zm12.41-6.19-2.93,5.12A5.5,5.5,0,0,0,77,20.36a3.87,3.87,0,0,0,2.2.7,2.91,2.91,0,0,0,1.93-.69,4.37,4.37,0,0,0,1.26-1.89,9,9,0,0,0,.49-2.71Z"/></g></g></svg>