<svg xmlns="http://www.w3.org/2000/svg" viewBox="0 0 57.29 33.19"><defs><style>.cls-1{fill:#1d1d1b;}</style></defs><g id="Layer_2" data-name="Layer 2"><g id="Layer_1-2" data-name="Layer 1"><path class="cls-1" d="M12.25,32.59a19.36,19.36,0,0,1-3.76.4q-4.17,0-6.33-2.23T0,24.24c0-.67,0-1.46.11-2.37s.22-2.4.45-4.45H4.82c-.24,1.82-.39,3.16-.46,4s-.11,1.63-.11,2.24a3.66,3.66,0,0,0,1.17,3,6.22,6.22,0,0,0,3.84.93,22.21,22.21,0,0,0,3.84-.37,23.17,23.17,0,0,0,4-1.11l-.8-14.75,5.09-.75V22A20.52,20.52,0,0,1,21,26.22a6.83,6.83,0,0,1-4.65,5.19A25.59,25.59,0,0,1,12.25,32.59ZM9.16,6.29l3.6,3.64-3.6,3.61L5.55,9.93Z"/><path class="cls-1" d="M29.36,19.46a5.4,5.4,0,0,0,1.89.74,12.28,12.28,0,0,0,2.59.26h.88v5.17H33.13c-2.8,0-4.89-.65-6.29-1.95s-2.12-3.3-2.18-6l-.38-16L29.36.86Z"/><path class="cls-1" d="M45.81,13.7c.08,2.08.12,3.71.12,4.9a5.38,5.38,0,0,1-1.4,3.68,9.07,9.07,0,0,1-3.93,2.47,17.91,17.91,0,0,1-5.88.88H33.13V20.46h1.59a25.72,25.72,0,0,0,4-.29,10.32,10.32,0,0,0,2.91-.82l-1.17-10,5.07-1.07C45.63,9.81,45.73,11.62,45.81,13.7ZM41.92,0l3.61,3.64-3.61,3.6-3.6-3.6Z"/><path class="cls-1" d="M45.9,27.88a7.53,7.53,0,0,0,4.4-1.26,9,9,0,0,0,3-3.86l-1.92-11,5-1.25c.19,1.83.34,3.74.47,5.73S57,20,57,21.64a12.49,12.49,0,0,1-1.38,5.87,10.76,10.76,0,0,1-3.77,4.16,9.75,9.75,0,0,1-5.33,1.52,10.9,10.9,0,0,1-3.07-.44V27.88ZM53.68,2.3l3.61,3.64-3.61,3.6-3.6-3.6Z"/></g></g></svg>