<svg xmlns="http://www.w3.org/2000/svg" viewBox="0 0 106.33 33.47"><defs><style>.cls-1{fill:#1d1d1b;}</style></defs><g id="Layer_2" data-name="Layer 2"><g id="Layer_1-2" data-name="Layer 1"><path class="cls-1" d="M12.25,33a19.42,19.42,0,0,1-3.76.41q-4.17,0-6.33-2.24C.72,29.7,0,27.52,0,24.66,0,24,0,23.2.11,22.29s.22-2.4.45-4.45H4.82c-.24,1.82-.39,3.17-.46,4s-.11,1.63-.11,2.24a3.66,3.66,0,0,0,1.17,3,6.22,6.22,0,0,0,3.84.93,21.26,21.26,0,0,0,3.84-.37,22.3,22.3,0,0,0,4-1.11l-.8-14.74,5.09-.76v11.3A20.52,20.52,0,0,1,21,26.64a6.83,6.83,0,0,1-4.65,5.19A25.59,25.59,0,0,1,12.25,33ZM9.16,6.71l3.6,3.64L9.16,14,5.55,10.35Z"/><path class="cls-1" d="M29.36,19.88a5.4,5.4,0,0,0,1.89.74,12.28,12.28,0,0,0,2.59.26h.88v5.17H33.13c-2.8,0-4.89-.65-6.29-1.95s-2.12-3.29-2.18-6l-.38-16,5.08-.79Z"/><path class="cls-1" d="M33.13,26.05V20.88h1.59c1.91,0,3.47,0,4.67-.11a26.92,26.92,0,0,0,3.8-.54V16.75a24.86,24.86,0,0,0-.09-2.66,1.42,1.42,0,0,0-.46-1,6.32,6.32,0,0,0-1.51-.71L34.42,9.93l1.42-7.19L49.36,0l-.55,5.2L38.36,6.54l3.7,1.18a13.93,13.93,0,0,1,3.85,1.63,3.72,3.72,0,0,1,1.21,2.52A69.62,69.62,0,0,1,47.51,19a6.11,6.11,0,0,1-1.75,4.53,8.49,8.49,0,0,1-4.34,2,37.82,37.82,0,0,1-6.7.49Z"/><path class="cls-1" d="M67.38,13a18.69,18.69,0,0,1,1.49,7.2,5.53,5.53,0,0,1-1.15,3.54A7.06,7.06,0,0,1,64.36,26a16.69,16.69,0,0,1-5.35.76,12.26,12.26,0,0,1-4.27-.6,4.14,4.14,0,0,1-2.27-1.94,7.72,7.72,0,0,1-.68-3.65V16.8h4.38v4.4a13.19,13.19,0,0,0,3.43.32,30.44,30.44,0,0,0,3.06-.15,10.81,10.81,0,0,0,2.21-.4,12.44,12.44,0,0,0-1.46-5,23.64,23.64,0,0,0-3.48-5l3.39-4.22A21.77,21.77,0,0,1,67.38,13Z"/><path class="cls-1" d="M72.28,13.32a6.38,6.38,0,0,1,2-3.57,6.37,6.37,0,0,1,4.36-1.31,7.05,7.05,0,0,1,6.24,3.09c1.41,2.06,2.16,5.18,2.27,9.34h4.52v5.17L86.8,26a8.74,8.74,0,0,1-3,5.65,10.69,10.69,0,0,1-6.62,1.79A35.27,35.27,0,0,1,72,33V28.34h4.81a23.6,23.6,0,0,0,2.72-.14,5.39,5.39,0,0,0,2.11-.67,2.67,2.67,0,0,0,1.27-1.67,40.26,40.26,0,0,1-4.29.21,9,9,0,0,1-3.89-.72,4.63,4.63,0,0,1-2.22-2.23,9.18,9.18,0,0,1-.72-3.92A29.47,29.47,0,0,1,72.28,13.32ZM76.1,19.9a1.58,1.58,0,0,0,1,.78,7.3,7.3,0,0,0,2.1.22h3.45a18.54,18.54,0,0,0-.52-4.41,3.86,3.86,0,0,0-1.42-2.23A4.8,4.8,0,0,0,78,13.61a12.24,12.24,0,0,0-1.95.15q-.21,2.25-.21,4.47A4,4,0,0,0,76.1,19.9Z"/><path class="cls-1" d="M90.11,26.05V20.88h1.58c1.91,0,3.47,0,4.67-.11a26.92,26.92,0,0,0,3.8-.54V16.75a24.86,24.86,0,0,0-.09-2.66,1.46,1.46,0,0,0-.45-1,6.45,6.45,0,0,0-1.52-.71L91.39,9.93l1.42-7.19L106.33,0l-.54,5.2L95.33,6.54,99,7.72a14,14,0,0,1,3.84,1.63,3.72,3.72,0,0,1,1.21,2.52,69.62,69.62,0,0,1,.39,7.13,6.14,6.14,0,0,1-1.74,4.53,8.57,8.57,0,0,1-4.35,2,37.82,37.82,0,0,1-6.7.49Z"/></g></g></svg>