<?xml version="1.0" encoding="utf-8"?>
<!-- Generator: Adobe Illustrator 24.2.3, SVG Export Plug-In . SVG Version: 6.00 Build 0)  -->
<svg version="1.1" id="Layer_1" xmlns="http://www.w3.org/2000/svg" xmlns:xlink="http://www.w3.org/1999/xlink" x="0px" y="0px"
	 viewBox="0 0 300 300" preserveAspectRatio="none" style="enable-background:new 0 0 300 300;" xml:space="preserve">
<style type="text/css">
	.st0{fill-rule:evenodd;clip-rule:evenodd;}
	.st1{fill-rule:evenodd;clip-rule:evenodd;fill:#000;}
</style>
<g id="Group_818" transform="translate(701.766 813.008)">
	<g id="Group_817">
		<path id="Path_631" class="st0" d="M-668.21-599.81h232.58l-25.62-25.8l-10.52,0.2v-74.03l8.62-0.21l43.96-43.96l-52.55-52.55
			l-43.38,43.39v-60.08h-74.03v59.63l-42.94-42.94l-52.55,52.55l43.66,43.66h8.92v74.03h-10.22L-668.21-599.81z"/>
		<path id="Path_632" class="st0" d="M-435.62-727.17H-668.2l25.62,25.8l10.52-0.2v74.03l-8.62,0.21l-43.96,43.96l52.54,52.55
			l43.39-43.39v60.08h74.03v-59.64l42.94,42.94l52.55-52.55l-43.66-43.66l1.3-74.03L-435.62-727.17z"/>
	</g>
</g>
<rect x="-3" y="112" class="st1" width="307" height="75"/>
</svg>
