<svg xmlns="http://www.w3.org/2000/svg" width="15.076" height="17.897" viewBox="0 0 15.076 17.897">
  <g id="notification-bell" transform="translate(-40.36)">
    <path id="Path_888" data-name="Path 888" d="M359.353,6.947l1-.3a7.871,7.871,0,0,0-3.489-4.494l-.542.9a6.824,6.824,0,0,1,3.026,3.9Z" transform="translate(-304.922 -2.078)"/>
    <path id="Path_889" data-name="Path 889" d="M44.391,3.051l-.542-.9A7.872,7.872,0,0,0,40.36,6.647l1,.3a6.824,6.824,0,0,1,3.026-3.9Z" transform="translate(0 -2.078)"/>
    <path id="Path_890" data-name="Path 890" d="M62.049,6.816v5.621a1.258,1.258,0,0,1-.371.9A2.3,2.3,0,0,0,61,14.969V15.8H74.633v-.832a2.3,2.3,0,0,0-.678-1.637,1.258,1.258,0,0,1-.371-.9V6.816a5.774,5.774,0,0,0-5.243-5.741V0H67.292V1.075A5.774,5.774,0,0,0,62.049,6.816Z" transform="translate(-19.919)"/>
    <path id="Path_891" data-name="Path 891" d="M198.467,483.049A2.611,2.611,0,0,0,200.551,482h-4.168A2.611,2.611,0,0,0,198.467,483.049Z" transform="translate(-150.569 -465.151)"/>
  </g>
</svg>
