<?xml version="1.0" encoding="utf-8"?>
<!-- Generator: Adobe Illustrator 24.2.3, SVG Export Plug-In . SVG Version: 6.00 Build 0)  -->
<svg version="1.1" id="Layer_1" xmlns="http://www.w3.org/2000/svg" xmlns:xlink="http://www.w3.org/1999/xlink" x="0px" y="0px"
	 viewBox="0 0 682 682" style="enable-background:new 0 0 682 682;" xml:space="preserve">
<style type="text/css">
	.st0{fill:#70706F;}
	.st1{fill:#FFFFFF;}
	.st2{fill-rule:evenodd;clip-rule:evenodd;fill:#FFFFFF;}
</style>
<g id="WhatsApp_5_">
	<rect id="back_20_" x="1" y="0.5" class="st0" width="681" height="681"/>
	<g id="whatsApp_5_">
		<path class="st1" d="M150.9,532.7l27-98.3c-16.6-28.9-25.3-61.5-25.3-95c0-104.7,85.3-189.9,189.9-189.9
			c50.8,0,98.5,19.7,134.3,55.7c35.9,35.9,55.5,83.6,55.5,134.3c0,104.7-85.3,189.9-189.9,189.9l0,0l0,0c-31.8,0-62.9-8-90.7-23.1
			L150.9,532.7z M256.1,472l5.8,3.4c24.2,14.3,52,22,80.3,22l0,0c87,0,157.7-70.8,157.9-157.9c0-42.1-16.4-81.7-46.2-111.7
			c-29.8-29.8-69.5-46.2-111.5-46.4c-87.1,0-157.9,70.8-157.9,157.7c0,29.8,8.4,58.8,24.2,84l3.7,6l-16,58.3L256.1,472z"/>
		<path class="st2" d="M438.1,384.7c-1.1-2-4.3-3.2-9.1-5.6c-4.8-2.4-28.1-13.8-32.4-15.5c-4.3-1.5-7.4-2.4-10.6,2.4
			c-3.2,4.8-12.3,15.5-15.1,18.6s-5.6,3.5-10.2,1.1c-4.7-2.4-20.1-7.4-38.2-23.5c-14.2-12.7-23.6-28.1-26.4-33
			c-2.8-4.8-0.4-7.3,2-9.7c2-2,4.7-5.6,7.1-8.4c2.4-2.8,3.2-4.8,4.7-8c1.5-3.2,0.7-6-0.4-8.4c-1.1-2.4-10.6-25.7-14.7-35.2
			c-3.9-9.3-7.8-8-10.6-8.2c-2.8-0.2-6-0.2-9.1-0.2c-3.2,0-8.4,1.1-12.7,6c-4.3,4.8-16.6,16.2-16.6,39.7c0,23.3,16.9,46,19.4,49.2
			s33.5,51,81,71.7c11.4,4.8,20.1,7.8,27,10.1c11.4,3.5,21.8,3.2,29.8,1.9c9.1-1.3,28.1-11.5,32-22.5
			C439.2,396.2,439.2,386.7,438.1,384.7z"/>
	</g>
</g>
</svg>
