<svg xmlns="http://www.w3.org/2000/svg" width="87.804" height="64.467" viewBox="0 0 87.804 64.467">
  <g id="check-mark" transform="translate(0.81 -1.694)" opacity="0.9">
    <g id="Path_892" data-name="Path 892" transform="translate(0 0)" fill="rgba(161,183,161,0.81)" stroke-linecap="square">
      <path d="M77.045,2.3C75.73.982,74.6,2.037,73.28,3.355L33.461,43.123,12.954,22.5c-1.828-1.817-2.56-2.549-4.782,0L-.093,30.74C-1.678,32.35-.329,33.134.986,34.452L31.87,65.167c1.67,1.669,2.288,1.051,3.965-.487L86.447,14.315c1.254-1.463.135-2.478-1.2-3.8Z" stroke="none"/>
      <path d="M 75.808837890625 1.694404602050781 L 75.808837890625 2.694404602050781 C 75.35198974609375 2.694404602050781 74.53147125244141 3.517066955566406 73.98714447021484 4.06280517578125 L 34.1676139831543 43.83018112182617 L 33.45847320556641 44.53840637207031 L 32.75182342529297 43.82769012451172 L 12.24623870849609 23.20391082763672 L 12.24391937255859 23.20160675048828 C 11.54409790039063 22.50608825683594 10.88309478759766 21.84914779663086 10.53996276855469 21.84914779663086 C 10.36227416992188 21.84914779663086 9.916236877441406 22.01876831054688 8.925460815429688 23.15478134155273 L 8.902610778808594 23.18096923828125 L 8.877998352050781 23.20552444458008 L 0.61639404296875 31.44552612304688 C 0.2987518310546875 31.76881408691406 0.187957763671875 31.99409484863281 0.1896820068359375 32.08898162841797 C 0.1938629150390625 32.31852340698242 0.7414627075195313 32.83544158935547 1.14129638671875 33.21287536621094 C 1.319976806640625 33.38154602050781 1.504753112792969 33.55595779418945 1.691574096679688 33.7432861328125 L 32.57709503173828 64.45962524414063 C 33.22815322875977 65.11046600341797 33.49626159667969 65.16104125976563 33.56291961669922 65.16104125976563 C 33.83187103271484 65.16104125976563 34.4669075012207 64.57830810546875 35.08104705810547 64.01475524902344 L 35.14410400390625 63.95690155029297 L 85.71171569824219 13.63636779785156 C 86.09011840820313 13.18317413330078 86.00255584716797 12.98637008666992 85.93195343017578 12.82758331298828 C 85.74893951416016 12.4160270690918 85.22716522216797 11.8997802734375 84.67472839355469 11.35321807861328 L 84.54055786132813 11.22033309936523 L 76.33689880371094 3.006607055664063 C 76.13027954101563 2.799461364746094 75.95263671875 2.694419860839844 75.80888366699219 2.694404602050781 L 75.808837890625 1.694404602050781 M 75.80896759033203 1.694404602050781 C 76.21007537841797 1.694442749023438 76.61801910400391 1.872398376464844 77.044921875 2.3004150390625 L 85.24809265136719 10.51366424560547 C 86.58265686035156 11.8371467590332 87.70116424560547 12.85253524780273 86.44725799560547 14.31518173217773 L 35.83515548706055 64.67999267578125 C 34.85717010498047 65.57695770263672 34.23932266235352 66.16104888916016 33.56292343139648 66.16104888916016 C 33.07949829101563 66.16104888916016 32.56615447998047 65.86264801025391 31.8701171875 65.16686248779297 L 0.9864120483398438 34.45233535766602 C -0.3288116455078125 33.13367462158203 -1.677742004394531 32.34973526000977 -0.0927734375 30.74047470092773 L 8.171821594238281 22.49748611450195 C 9.192008972167969 21.3277587890625 9.897872924804688 20.84914398193359 10.53997039794922 20.84914398193359 C 11.29682922363281 20.84914398193359 11.96502685546875 21.51455688476563 12.95403289794922 22.49748611450195 L 33.46096420288086 43.12261962890625 L 73.28049468994141 3.355239868164063 C 74.16880798339844 2.464607238769531 74.97431182861328 1.694320678710938 75.80896759033203 1.694404602050781 Z" stroke="none" fill="rgba(112,112,112,0.36)"/>
    </g>
  </g>
</svg>
