<svg xmlns="http://www.w3.org/2000/svg" width="15.83" height="15.833" viewBox="0 0 15.83 15.833"><defs><style>.a{fill:#2f2f2f;}</style></defs><path class="a" d="M410.351,59.307H409.3c-.189-.023-.376-.043-.564-.07a7.926,7.926,0,0,1-6.7-6.467c-.05-.282-.082-.567-.122-.85V50.869a1.152,1.152,0,0,0,.03-.148,7.006,7.006,0,0,1,.615-2.453,7.782,7.782,0,0,1,6.646-4.756,7.319,7.319,0,0,1,3.451.491,7.894,7.894,0,0,1,5.016,8.476,7.629,7.629,0,0,1-1.84,4.074,7.789,7.789,0,0,1-4.807,2.665C410.8,59.252,410.574,59.278,410.351,59.307Zm-.526-6.929v0c-.566,0-1.133-.019-1.7,0a2.613,2.613,0,0,0-2.471,2.5,1.114,1.114,0,0,0,.393.963,5.83,5.83,0,0,0,7.138.326,1.477,1.477,0,0,0,.8-1.473,2.647,2.647,0,0,0-2.381-2.311C411.01,52.355,410.417,52.378,409.825,52.378Zm2.612-3.912a2.611,2.611,0,1,0-2.612,2.616A2.6,2.6,0,0,0,412.437,48.466Z" transform="translate(-401.91 -43.474)"/></svg>