<?xml version="1.0" encoding="utf-8"?>
<!-- Generator: Adobe Illustrator 24.2.3, SVG Export Plug-In . SVG Version: 6.00 Build 0)  -->
<svg version="1.1" id="Layer_1" xmlns="http://www.w3.org/2000/svg" xmlns:xlink="http://www.w3.org/1999/xlink" x="0px" y="0px"
	 viewBox="0 0 512 512" style="enable-background:new 0 0 512 512;" xml:space="preserve">
<style type="text/css">
	.st0{fill:#70706F;}
	.st1{fill:#FFFFFF;}
</style>
<g id="Instagram_5_">
	<rect id="back_17_" x="1" y="0.5" class="st0" width="511" height="511"/>
	<g>
		<path class="st1" d="M256.6,138.8c38.1,0,42.8,0.1,57.8,0.8c14,0.7,21.5,2.9,26.5,4.9c6.7,2.7,11.5,5.7,16.5,10.8
			c5,5,8.1,9.8,10.8,16.5c2,5,4.3,12.6,4.9,26.5c0.7,15.1,0.8,19.6,0.8,57.8s-0.1,42.8-0.8,57.8c-0.7,14-2.9,21.5-4.9,26.5
			c-2.7,6.7-5.7,11.5-10.8,16.5c-5,5-9.8,8.1-16.5,10.8c-5,2-12.6,4.3-26.5,4.9c-15.1,0.7-19.6,0.8-57.8,0.8
			c-38.1,0-42.8-0.1-57.8-0.8c-14-0.7-21.5-2.9-26.5-4.9c-6.7-2.7-11.5-5.7-16.5-10.8c-5-5-8.1-9.8-10.8-16.5
			c-2-5-4.3-12.6-4.9-26.5c-0.7-15.1-0.8-19.6-0.8-57.8s0.1-42.8,0.8-57.8c0.7-14,2.9-21.5,4.9-26.5c2.7-6.7,5.7-11.5,10.8-16.5
			c5-5,9.8-8.1,16.5-10.8c5-2,12.6-4.3,26.5-4.9C213.8,139,218.4,138.8,256.6,138.8 M256.6,113c-38.8,0-43.7,0.1-59,0.8
			c-15.2,0.7-25.6,3.1-34.8,6.7c-9.4,3.6-17.3,8.5-25.3,16.5s-12.9,15.9-16.5,25.3c-3.5,9.1-6,19.6-6.7,34.8
			c-0.7,15.2-0.8,20.1-0.8,59s0.1,43.7,0.8,59c0.7,15.2,3.1,25.6,6.7,34.8c3.6,9.4,8.5,17.3,16.5,25.3c8,8,15.9,12.9,25.3,16.5
			c9.1,3.5,19.6,6,34.8,6.7c15.2,0.7,20.1,0.8,59,0.8c38.8,0,43.7-0.1,59-0.8c15.2-0.7,25.6-3.1,34.8-6.7
			c9.4-3.6,17.3-8.5,25.3-16.5s12.9-15.9,16.5-25.3c3.5-9.1,6-19.6,6.7-34.8c0.7-15.2,0.8-20.1,0.8-59s-0.1-43.7-0.8-59
			c-0.7-15.2-3.1-25.6-6.7-34.8c-3.6-9.4-8.5-17.3-16.5-25.3s-15.9-12.9-25.3-16.5c-9.1-3.5-19.6-6-34.8-6.7
			C300.3,113.1,295.4,113,256.6,113L256.6,113z"/>
		<path class="st1" d="M256.6,182.6c-40.5,0-73.5,32.8-73.5,73.5s32.8,73.5,73.5,73.5c40.5,0,73.5-32.8,73.5-73.5
			S297.1,182.6,256.6,182.6z M256.6,303.7c-26.4,0-47.6-21.4-47.6-47.6c0-26.4,21.4-47.6,47.6-47.6c26.4,0,47.6,21.4,47.6,47.6
			C304.2,282.5,283,303.7,256.6,303.7z"/>
		<circle class="st1" cx="333" cy="179.6" r="17.2"/>
	</g>
</g>
</svg>
