<?xml version="1.0" encoding="utf-8"?>
<!-- Generator: Adobe Illustrator 24.2.3, SVG Export Plug-In . SVG Version: 6.00 Build 0)  -->
<svg version="1.1" id="Layer_1" xmlns="http://www.w3.org/2000/svg" xmlns:xlink="http://www.w3.org/1999/xlink" x="0px" y="0px"
	 viewBox="0 0 682 682" style="enable-background:new 0 0 682 682;" xml:space="preserve">
<style type="text/css">
	.st0{fill:#70706F;}
	.st1{fill:#FFFFFF;}
</style>
<g id="WhatsApp_5_">
	<rect id="back_20_" x="1" y="0.5" class="st0" width="681" height="681"/>
</g>
<g>
	<g>
		<path class="st1" d="M552,210.1c-15.6,6.8-32.2,11.4-49.5,13.6c17.8-10.6,31.4-27.3,37.8-47.5c-16.6,9.9-34.9,16.9-54.5,20.8
			c-15.8-16.8-38.2-27.2-62.7-27.2c-47.6,0-85.8,38.6-85.8,85.9c0,6.8,0.6,13.4,2,19.6c-71.4-3.5-134.6-37.7-177.1-89.8
			c-7.4,12.9-11.8,27.6-11.8,43.4c0,29.7,15.3,56.1,38.2,71.4c-13.8-0.3-27.3-4.3-38.8-10.6c0,0.3,0,0.6,0,0.9
			c0,41.7,29.8,76.4,68.8,84.4c-7,1.9-14.6,2.8-22.5,2.8c-5.5,0-11.1-0.3-16.3-1.5c11.1,34,42.7,59,80.3,59.8
			c-29.2,22.9-66.3,36.6-106.5,36.6c-7,0-13.8-0.3-20.6-1.2c38.1,24.5,83.1,38.5,131.8,38.5c158.1,0,244.5-130.9,244.5-244.4
			c0-3.8-0.1-7.5-0.3-11.1C526,242.6,540.3,227.5,552,210.1z"/>
	</g>
</g>
</svg>
