<?xml version="1.0"?>
<svg xmlns="http://www.w3.org/2000/svg" width="512" height="512" viewBox="0 0 128 128"><g><path d="M29.15,31.281A11.955,11.955,0,0,0,12.3,32.308l-.713.8a11.94,11.94,0,0,0,17.88,15.829l.715-.8A11.957,11.957,0,0,0,29.15,31.281ZM27.557,45.816l-.715.806A8.44,8.44,0,0,1,14.2,35.434l.713-.806A8.44,8.44,0,0,1,27.557,45.816Z"/><path d="M29.463,79.058A11.94,11.94,0,1,0,11.582,94.887l.713.8A11.94,11.94,0,1,0,30.176,79.863ZM26.83,94.1a8.45,8.45,0,0,1-11.914-.726l-.713-.806a8.44,8.44,0,0,1,12.64-11.188l.713.806A8.45,8.45,0,0,1,26.83,94.1Z"/><path d="M46.725,59.054A4.946,4.946,0,1,0,51.671,64,4.951,4.951,0,0,0,46.725,59.054Zm0,6.392A1.446,1.446,0,1,1,48.171,64,1.448,1.448,0,0,1,46.725,65.446Z"/><path d="M58.361,64,101.87,27.774a1.749,1.749,0,0,0,.19-2.5,16.618,16.618,0,0,0-11.851-5.554,19.166,19.166,0,0,0-13.875,5.3L47.417,52.727c-.23-.014-.459-.035-.692-.035a11.263,11.263,0,0,0-1.763.152l-5.02-4.18A20.522,20.522,0,0,0,5.87,26.619l-.714.8A20.522,20.522,0,0,0,30.433,59l4.995,4.787c0,.072-.011.142-.011.215s.009.143.011.215L30.433,69A20.522,20.522,0,0,0,5.157,100.576l.712.805a20.394,20.394,0,0,0,14.12,6.882c.426.025.851.039,1.275.039A20.524,20.524,0,0,0,39.942,79.336l5.02-4.18a11.263,11.263,0,0,0,1.763.152c.233,0,.462-.021.692-.035L76.34,102.99A19.161,19.161,0,0,0,89.433,108.3q.387,0,.776-.017a16.618,16.618,0,0,0,11.851-5.554,1.749,1.749,0,0,0-.19-2.5ZM46.725,71.808A7.748,7.748,0,0,1,44.97,71.6h0a7.8,7.8,0,0,1,0-15.2l.008,0a7.773,7.773,0,0,1,9.544,7.238v.021c.005.115.017.227.017.343s-.012.228-.017.343v.021A7.812,7.812,0,0,1,46.725,71.808ZM78.75,27.549a15.581,15.581,0,0,1,11.307-4.336,13.269,13.269,0,0,1,8.088,3.107L57.384,60.259a11.354,11.354,0,0,0-5.955-6.529Zm-46.857,28a1.749,1.749,0,0,0-2.159-.207,17.023,17.023,0,0,1-21.958-25.6l.714-.8A17.021,17.021,0,0,1,36.221,48.294a1.75,1.75,0,0,0,.42,2.176L41.115,54.2a11.367,11.367,0,0,0-4.856,5.538ZM36.641,77.53a1.75,1.75,0,0,0-.42,2.176A17.022,17.022,0,0,1,8.489,99.06l-.712-.8a17.022,17.022,0,0,1,21.957-25.6,1.746,1.746,0,0,0,2.159-.207l4.366-4.184a11.367,11.367,0,0,0,4.856,5.538Zm53.416,27.257a15.626,15.626,0,0,1-11.3-4.33L51.429,74.27a11.354,11.354,0,0,0,5.955-6.529L98.145,101.68A13.269,13.269,0,0,1,90.057,104.787Z"/><path d="M67.812,62.25a1.75,1.75,0,0,0,0,3.5H76.67a1.75,1.75,0,1,0,0-3.5Z"/><path d="M84.235,62.25a1.75,1.75,0,0,0,0,3.5h8.857a1.75,1.75,0,0,0,0-3.5Z"/><path d="M109.515,62.25h-8.857a1.75,1.75,0,0,0,0,3.5h8.857a1.75,1.75,0,0,0,0-3.5Z"/><path d="M125.937,62.25H117.08a1.75,1.75,0,1,0,0,3.5h8.857a1.75,1.75,0,1,0,0-3.5Z"/></g></svg>
