<?xml version="1.0" encoding="iso-8859-1"?>
<!-- Generator: Adobe Illustrator 19.0.0, SVG Export Plug-In . SVG Version: 6.00 Build 0)  -->
<svg version="1.1" id="Capa_1" xmlns="http://www.w3.org/2000/svg" xmlns:xlink="http://www.w3.org/1999/xlink" x="0px" y="0px"
	 viewBox="0 0 415.888 415.888" style="enable-background:new 0 0 415.888 415.888;" xml:space="preserve">
<g>
	<g>
		<path d="M185.32,216.272l-45.264,90.496l90.528-45.232l45.248-90.512L185.32,216.272z M218.648,249.6l-42.816,21.392l21.408-42.8
			l42.816-21.392L218.648,249.6z"/>
	</g>
</g>
<g>
	<g>
		<path d="M207.944,112c-70.64,0-127.888,57.264-127.888,127.888s57.264,127.888,127.888,127.888s127.888-57.264,127.888-127.888
			C335.832,169.248,278.568,112,207.944,112z M207.944,351.776c-61.696,0-111.888-50.192-111.888-111.888S146.248,128,207.944,128
			s111.888,50.192,111.888,111.888S269.64,351.776,207.944,351.776z"/>
	</g>
</g>
<g>
	<g>
		<path d="M237.56,66.576c6.384-7.056,10.384-16.304,10.384-26.576c0-22.096-17.904-40-40-40s-40,17.904-40,40
			c0,10.272,4,19.52,10.384,26.576C95.256,80.672,31.944,152.8,31.944,239.888c0,97.2,78.8,176,176,176s176-78.8,176-176
			C383.944,152.8,320.632,80.672,237.56,66.576z M207.944,16c13.232,0,24,10.768,24,24c0,12.992-10.384,23.536-23.28,23.92
			c-0.24,0-0.48-0.032-0.72-0.032s-0.48,0.032-0.72,0.032c-12.896-0.384-23.28-10.928-23.28-23.92
			C183.944,26.768,194.712,16,207.944,16z M207.944,399.888c-88.224,0-160-71.776-160-160s71.776-160,160-160s160,71.776,160,160
			S296.168,399.888,207.944,399.888z"/>
	</g>
</g>
<g>
</g>
<g>
</g>
<g>
</g>
<g>
</g>
<g>
</g>
<g>
</g>
<g>
</g>
<g>
</g>
<g>
</g>
<g>
</g>
<g>
</g>
<g>
</g>
<g>
</g>
<g>
</g>
<g>
</g>
</svg>
