<svg xmlns="http://www.w3.org/2000/svg" viewBox="0 0 18.48 24.09"><defs><style>.cls-1,.cls-2{fill:none;stroke:#000;}.cls-1{stroke-miterlimit:10;stroke-width:1.5px;}.cls-2{stroke-width:0.5px;}</style></defs><g id="Layer_2" data-name="Layer 2"><g id="Layer_1-2" data-name="Layer 1"><path class="cls-1" d="M12.51,7.66H16A1.74,1.74,0,0,1,17.73,9.4V21.6A1.74,1.74,0,0,1,16,23.34H2.49A1.74,1.74,0,0,1,.75,21.6V9.4A1.74,1.74,0,0,1,2.49,7.66H6.24"/><path d="M8.55,2c-.62.77-1.24,1.55-1.87,2.32-.3.38-.55.47-.79.28s-.2-.45.12-.83L8.67.5a.46.46,0,0,1,.81,0l2.73,3.39a.39.39,0,0,1,.08.1.44.44,0,1,1-.68.55c-.36-.43-.71-.88-1.06-1.32L9.54,2a3.73,3.73,0,0,0,0,.43V16.09c0,.49-.14.71-.45.71s-.43-.22-.43-.73c0-2.92,0-10.68,0-13.61V2.07Z"/><path class="cls-2" d="M8.55,2c-.62.77-1.24,1.55-1.87,2.32-.3.38-.55.47-.79.28s-.2-.45.12-.83L8.67.5a.46.46,0,0,1,.81,0l2.73,3.39a.39.39,0,0,1,.08.1.44.44,0,1,1-.68.55c-.36-.43-.71-.88-1.06-1.32L9.54,2a3.73,3.73,0,0,0,0,.43V16.09c0,.49-.14.71-.45.71s-.43-.22-.43-.73c0-2.92,0-10.68,0-13.61V2.07Z"/></g></g></svg>