<?xml version="1.0" encoding="utf-8"?>
<!-- Generator: Adobe Illustrator 24.2.3, SVG Export Plug-In . SVG Version: 6.00 Build 0)  -->
<svg version="1.1" id="Layer_1" xmlns="http://www.w3.org/2000/svg" xmlns:xlink="http://www.w3.org/1999/xlink" x="0px" y="0px"
	 viewBox="0 0 407 300.4" style="enable-background:new 0 0 407 300.4;" xml:space="preserve">
<style type="text/css">
	.st0{display:none;}
	.st1{display:inline;fill:#B22424;}
	.st2{display:inline;fill:#FF3939;}
	.st3{display:inline;fill:#FEFEFE;}
	.st4{fill:#FF5C1B;}
</style>
<g id="Layer_2_1_" class="st0">
	<rect x="-138" y="-92" class="st1" width="1061" height="474"/>
</g>
<g id="Layer_1_2_">
	<g id="Layer_2_2_" class="st0">
		<rect x="-522.5" y="-485.5" class="st2" width="1566" height="988"/>
	</g>
	<g id="Layer_1_1_">
		<g class="st0">
			<path class="st3" d="M165.1-130.5c36.3,0,72.8,0,109.8,0c-5.4,24.1-10.6,48.1-16,72.1c-9.3,42-18.8,84-28.1,126
				c-1,4.5-2.2,6.3-7.3,6.3c-30.8-0.3-61.5-0.3-92.3,0c-4.7,0-6.3-1.6-7.1-5.7C109.7,3.5,95.2-61,80.7-125.7
				c-0.9-4.1-0.4-5.7,4.2-5.4c9,0.3,17.9,0.3,26.9,0c3.9-0.1,5.4,1.2,6.3,4.9c9.2,41.6,18.5,83,27.6,124.6c2.8,12.2,5.5,24.6,8,36.8
				c0.7,3.8,1.9,5.7,6.4,5.5c22.8-0.3,45.5-0.1,68.3-0.1c3.1,0,5.2,0,6.1-4.1c11.8-53.6,23.8-107.1,35.9-160.6
				c1.3-5.7-2.6-3.9-4.9-3.9c-31-0.1-62.1,0-93-0.1C170.1-128,167.3-127.4,165.1-130.5z"/>
			<path class="st3" d="M83.1-63.8c-6.4,0-12.1-0.1-17.6,0c-18.2,0.6-32,14.1-32.3,31.5C33-14.5,46.6-0.2,65.1,0.6
				c2.5,0.1,4.8,0,7.3,0c5.5,0,5.5,0,6.8-6.5c7.1,7.1,13.8,14,20.6,20.6c2.3,2.3,1.3,3.5-0.4,5.2c-6.5,6.4-12.9,12.9-20.6,20.6
				c1.2-9-4.5-7.6-8.9-7.4C33.3,34.9,10,9.7,3.2-13.3c-12.1-40.4,18.2-82.3,60.5-83c12.5-0.1,12.5-0.1,15.1,11.9
				c0.7,3.3,1.3,6.7,2,9.9C81.5-71.3,82.3-68,83.1-63.8z"/>
		</g>
		<path class="st4" d="M152,215.6c-10.9-10.8-21.7-21.7-32.5-32.5c-0.2-0.2-0.3-0.3-0.6-0.6c-0.3,1.3-0.1,2.5-0.1,3.7
			c0,1.8,0,3.7,0,5.5c0,0.6-0.1,0.9-0.8,0.9c-7.2-0.1-14.5,0.4-21.7-0.3c-13.6-1.2-24.6-7.4-32.8-18.3
			c-19.6-26.1-5.2-64.5,26.7-71.5c3.5-0.8,7.1-1.1,10.7-1.1c7.9,0,15.8,0,23.7,0c0.7,0,1.3,0.2,1-1c-3.4-14.9-6.7-29.7-10.1-44.6
			c-0.2-0.7-0.3-1-1.1-1c-7.8,0.1-15.6-0.3-23.4,0.4C77.9,56.5,65.7,60.4,54.3,67c-19,11.1-32.5,26.9-40.5,47.5
			c-2.6,6.8-4.3,13.8-5.2,21.1c0,0.6-0.1,1.2-0.2,1.8c-0.1,0.9-0.2,1.9-0.2,2.9c0,0.1,0,0.1,0,0.2c0,0.7-0.1,1.5-0.3,2.2
			c0,0.6-0.1,1.2-0.2,1.8c0,0.4,0,0.8-0.1,1.2v3.9c0.1,1,0.2,2,0.3,3c0,0.3,0,0.5,0,0.8c0.5,3.1,0.8,6.2,1.3,9.2
			c2.7,15.4,8.8,29.3,18.6,41.6c12.8,16,29.1,26.7,48.9,32.1c6.7,1.8,13.6,2.9,20.6,3c6.7,0.1,13.4,0.1,20.1,0
			c1.2,0,1.4,0.4,1.4,1.5c-0.1,3,0,6.1,0,9.2c0.6,0.1,0.8-0.4,1.1-0.7c10.7-10.7,21.4-21.3,32-32C152.4,216.7,152.8,216.4,152,215.6
			z"/>
		<path class="st4" d="M241.6,5.7L241.6,5.7c0.1,0.4,0.2,0.8,0.2,1.2c0,0.1,0.1,0.2,0.1,0.3c0.6,2.9,0.6,2.9,3.6,2.9
			c48.8,0,97.6,0,146.4,0.1c1.6,0,1.6,0,1.2,1.6c-4.9,22-9.8,43.9-14.8,65.9c-4.9,21.7-9.8,43.5-14.6,65.2
			c-5.4,24.2-10.8,48.3-16.2,72.5c-2.5,11-5,22-7.4,33c-0.2,1.1-0.7,1.3-1.7,1.3c-36.4,0-72.8,0-109.2,0c-1,0-1.4-0.3-1.6-1.2
			c-3.6-16.2-7.2-32.4-10.8-48.7c-3.9-17.3-7.7-34.5-11.6-51.8c-4.8-21.3-9.6-42.6-14.3-63.9c-5.2-23.3-10.4-46.6-15.6-70
			c-0.6-2.7-1.2-5.5-1.9-8.3l0,0c0-0.1-0.1-0.2-0.1-0.3c-17.6,0-35.3,0-52.9,0c0.1,0.4,0.2,0.9,0.3,1.3c0,0.1,0,0.2,0.1,0.2
			c7.5,33.4,15.1,66.8,22.6,100.2c6.2,27.4,12.4,54.8,18.5,82.2c6.7,29.5,13.3,59,20,88.5c1.4,6.2,2.8,12.5,4.2,18.7h147.7
			c0.1-0.5,0.3-1,0.4-1.5c1.2-5.5,2.5-11,3.7-16.6c4.9-22.2,9.9-44.4,14.8-66.6c5.3-23.8,10.6-47.5,15.9-71.3
			c4.7-21,9.4-42.1,14.1-63.1c5.2-23.3,10.4-46.5,15.6-69.8c0.1-0.5,0.2-0.8,0.3-1.1c0.1-0.4,0.2-0.8,0.3-1.2
			C346.4,5.7,294,5.7,241.6,5.7z"/>
	</g>
</g>
</svg>
