<svg xmlns="http://www.w3.org/2000/svg" viewBox="0 0 18.5 17"><defs><style>.cls-1{fill:#c6c6c8;}.cls-2{fill:none;stroke:#fff;stroke-linecap:round;stroke-width:1.5px;}</style></defs><g id="Layer_2" data-name="Layer 2"><g id="Layer_1-2" data-name="Layer 1"><path class="cls-1" d="M0,15V2a2,2,0,0,1,.15-.77A1.88,1.88,0,0,1,.59.59,1.88,1.88,0,0,1,1.23.15,2,2,0,0,1,2,0H16.5a2,2,0,0,1,.77.15,1.88,1.88,0,0,1,.64.44,1.88,1.88,0,0,1,.44.64A2,2,0,0,1,18.5,2V15a2,2,0,0,1-.15.77,2.13,2.13,0,0,1-1.08,1.08,2,2,0,0,1-.77.15H2a2,2,0,0,1-.77-.15,1.88,1.88,0,0,1-.64-.44,1.88,1.88,0,0,1-.44-.64A2,2,0,0,1,0,15Z"/><line class="cls-2" x1="4.97" y1="8.5" x2="13.43" y2="8.5"/><line class="cls-2" x1="9.2" y1="4.27" x2="9.2" y2="12.73"/></g></g></svg>