<?xml version="1.0" encoding="utf-8"?>
<!-- Generator: Adobe Illustrator 24.2.3, SVG Export Plug-In . SVG Version: 6.00 Build 0)  -->
<svg version="1.1" id="Bold" xmlns="http://www.w3.org/2000/svg" xmlns:xlink="http://www.w3.org/1999/xlink" x="0px" y="0px"
	 viewBox="0 0 512 512" style="enable-background:new 0 0 512 512;" xml:space="preserve">
<style type="text/css">
	.st0{fill:#70706F;}
	.st1{fill:#FFFFFF;}
</style>
<g id="Linkedin_9_">
	<rect id="back_18_" x="0.5" class="st0" width="512" height="512"/>
	<g id="Linkedin_10_">
		<path class="st1" d="M116.7,207.1h59.5v191.1h-59.5V207.1z M146.5,112c19,0,34.4,15.4,34.4,34.4s-15.4,34.4-34.4,34.4
			s-34.4-15.4-34.4-34.4S127.5,112,146.5,112"/>
		<path class="st1" d="M213.4,207.1h57v26.2h0.8c8-15,27.3-30.9,56.3-30.9c60.2,0,71.3,39.6,71.3,91.1v104.9h-59.4v-93
			c0-22.1-0.4-50.7-30.9-50.7c-30.9,0-35.7,24.2-35.7,49.1v94.5h-59.4C213.4,398.3,213.4,207.1,213.4,207.1z"/>
	</g>
</g>
</svg>
