<?xml version="1.0" encoding="utf-8"?>
<!-- Generator: Adobe Illustrator 24.2.3, SVG Export Plug-In . SVG Version: 6.00 Build 0)  -->
<svg version="1.1" id="Layer_1" xmlns="http://www.w3.org/2000/svg" xmlns:xlink="http://www.w3.org/1999/xlink" x="0px" y="0px"
	 viewBox="0 0 512 512" style="enable-background:new 0 0 512 512;" xml:space="preserve">
<style type="text/css">
	.st0{fill:#70706F;}
	.st1{fill:#FFFFFF;stroke:#70706F;stroke-width:0.11;stroke-miterlimit:10;}
</style>
<g id="Pinterest_5_">
	<rect id="back_19_" x="1" y="0.5" class="st0" width="511" height="511"/>
	<path class="st1" d="M109.4,242.2c1.3-5.4,5-8.4,10.1-10.3c88.5-35.1,176.8-70.3,265.2-105.5c1.1-0.4,2.2-1,3.5-1.4
		c8.8-2.8,16.9,4.3,15.2,13.4c-10.1,52.5-20,105.1-30,157.5c-5,26.5-10.1,53.2-15.1,79.8c-0.6,3.2-1.5,6.3-4.1,8.7
		c-4.3,3.9-9.9,4.1-15.5,0.3c-16.8-11.3-33.5-22.8-50.3-34.2c-6.7-4.6-13.6-9.1-20.1-13.7c-1.7-1.3-2.8-1.1-4.5,0.1
		c-11.9,8.7-23.9,17.3-35.9,25.9c-8.7,6.3-17.3,3.2-20-7.1c-6.3-23.8-12.6-47.5-18.9-71.3c-0.6-2-1.4-2.8-3.2-3.5
		c-22.1-8.4-44.2-16.9-66.2-25.2c-5-2-8.5-4.8-9.9-10.1C109.4,244.6,109.4,243.4,109.4,242.2z M338.2,356.4
		c11.9-62,23.6-123.8,35.4-185.6c-0.1-0.1-0.4-0.1-0.6-0.3c-42.5,40.9-85,81.7-127.6,122.8C276.4,314.5,307,335.3,338.2,356.4z
		 M214.5,291c2.7-2.5,3.6-3.6,6-6c39-37.6,78-74.8,117-112.2c1.1-1,2-1.8,2.9-2.7c-0.1-0.3-0.4-0.4-0.6-0.7
		c-62,24.7-124.1,49.3-186.7,74.3c1.7,0.7,2.8,1.1,3.8,1.5c14.4,5.4,28.6,11,43.2,16.5c5.2,2,8.2,5.2,9.5,10.5
		C211.2,278.8,212.8,284.6,214.5,291z M226.2,335.2c6.6-4.8,12.6-9.1,19-13.7c-9.4-6.4-18.3-12.4-27.5-18.7
		C220.5,313.6,223.3,324.1,226.2,335.2z"/>
</g>
</svg>
