<svg xmlns="http://www.w3.org/2000/svg" width="155.82" height="269.65" viewBox="0 0 155.82 269.65">
  <path id="Path_1" data-name="Path 1" d="M63.407-77.573q0-24.115,5.987-38.365T93-147.3q17.623-17.117,22.344-24.368a43.058,43.058,0,0,0,7.251-23.946q0-17.032-8.432-25.97t-24.621-8.938q-15.683,0-25.211,8.769t-9.528,23.778H10.793q.506-32.041,21.923-50.76t56.83-18.719q36.425,0,56.746,18.55t20.321,51.6q0,29.511-27.488,58.18L116.865-117.2q-11.973,13.66-12.31,39.63ZM60.372-21.248q0-10.624,6.661-17.2t18.128-6.577q11.636,0,18.3,6.745t6.661,17.032a23.14,23.14,0,0,1-6.493,16.7Q97.135,2.192,85.161,2.192T66.78-4.553A23.307,23.307,0,0,1,60.372-21.248Z" transform="translate(-10.793 267.457)" fill="#707070"/>
</svg>
