<svg id="Layer_1" data-name="Layer 1" xmlns="http://www.w3.org/2000/svg" viewBox="0 0 89.82 85.2"><defs><style>.cls-1{fill:#706f6f;}</style></defs><path class="cls-1" d="M68.08,45.36H59V43.24H66.7V40.73H56.41V38.62h9.21V35.89H47.56v4.94h0v6.35H38.85V27.88h3.08V25.07H36.54L23.24,44.71l2,1.84A7.34,7.34,0,1,0,35.69,56h13A7.33,7.33,0,0,0,62,55.83l3.43-.08A17.06,17.06,0,0,0,64.78,48h3.3ZM33.26,54.07h0c-.07.2-.15.39-.23.57l-.06.11a4.27,4.27,0,0,1-.3.51l-.07.09a4.7,4.7,0,0,1-.35.43.12.12,0,0,0,0,0,4.19,4.19,0,0,1-.45.39l-.1.08a3.36,3.36,0,0,1-.51.32l-.06,0a4.83,4.83,0,0,1-.52.23l-.1,0a3.19,3.19,0,0,1-.59.15l-.13,0a4.62,4.62,0,0,1-.65.05,4.35,4.35,0,0,1-4.35-4.35,6,6,0,0,1,0-.61.68.68,0,0,0,0-.14,5.27,5.27,0,0,1,.14-.57v0a4.77,4.77,0,0,1,.22-.52l0-.09a4,4,0,0,1,.31-.52h0a3.54,3.54,0,0,1,.38-.47l0,0a4.31,4.31,0,0,1,3.15-1.36,4.36,4.36,0,0,1,4.36,4.36A4.57,4.57,0,0,1,33.26,54.07Zm24.43,2.36a5,5,0,0,1-.72.38h0a5.16,5.16,0,0,1-.79.24h0a4.58,4.58,0,0,1-.83.08,4.25,4.25,0,0,1-.8-.07h0a4.38,4.38,0,0,1-.73-.21l0,0a3.73,3.73,0,0,1-.69-.35h0a4.36,4.36,0,1,1,4.68,0Z"/></svg>