<svg id="Layer_1" data-name="Layer 1" xmlns="http://www.w3.org/2000/svg" viewBox="0 0 89.82 85.2"><defs><style>.cls-1{fill:#706f6f;}</style></defs><polygon class="cls-1" points="58.42 43.41 56.6 43.41 45.97 43.41 45.97 47.04 56.6 47.04 58.42 47.04 63.59 47.04 63.59 43.41 58.42 43.41"/><polygon class="cls-1" points="52.96 48.04 46.8 48.04 46.8 59.23 62.75 59.23 62.75 48.04 56.6 48.04 52.96 48.04"/><polygon class="cls-1" points="36.86 43.41 26.23 43.41 26.23 47.04 36.86 47.04 38.68 47.04 43.85 47.04 43.85 43.41 38.68 43.41 36.86 43.41"/><polygon class="cls-1" points="33.22 48.04 27.07 48.04 27.07 59.23 43.02 59.23 43.02 48.04 36.86 48.04 33.22 48.04"/><polygon class="cls-1" points="48.55 29.6 53.72 29.6 53.72 25.96 48.55 25.96 46.73 25.96 36.1 25.96 36.1 29.6 46.73 29.6 48.55 29.6"/><polygon class="cls-1" points="43.09 30.6 36.94 30.6 36.94 41.79 52.88 41.79 52.88 30.6 46.73 30.6 43.09 30.6"/></svg>