<svg id="Layer_1" data-name="Layer 1" xmlns="http://www.w3.org/2000/svg" viewBox="0 0 89.82 85.2"><defs><style>.cls-1{fill:#706f6f;}</style></defs><path class="cls-1" d="M61.56,38.46H54.91l4.7-4.71L53.76,27.9l-4.71,4.7V26H40.77V32.6l-4.71-4.7-5.85,5.85,4.7,4.71H28.26v8.28h6.65l-4.7,4.71,5.85,5.85,4.71-4.7v6.65h8.28V52.6l4.71,4.7,5.85-5.85-4.7-4.71h6.65ZM44.92,35a3.25,3.25,0,1,1-3.25,3.24A3.24,3.24,0,0,1,44.92,35Zm4.17,12.81a7.27,7.27,0,0,1-8.87-.4,1.41,1.41,0,0,1-.49-1.2,3.25,3.25,0,0,1,3.07-3.11c.71,0,1.41,0,2.11,0h0c.74,0,1.48,0,2.21,0a3.3,3.3,0,0,1,3,2.87A1.86,1.86,0,0,1,49.09,47.77Z"/></svg>