<svg xmlns="http://www.w3.org/2000/svg" width="201.664" height="35.825" viewBox="0 0 201.664 35.825">
  <g id="Group_789" data-name="Group 789" transform="translate(-1226.121 -25.912)">
    <rect id="Rectangle_18" data-name="Rectangle 18" width="83.036" height="35.788" transform="translate(1226.121 25.93)"/>
    <rect id="Rectangle_19" data-name="Rectangle 19" width="82.84" height="35.788" transform="translate(1344.945 25.93)"/>
    <path id="Path_45" data-name="Path 45" d="M1540.286,60.329h-10.968V55.45h10.968Zm-46.877-.734h5.483V41.218h-5.483Zm25.231-21.874-3.5,3.5,3.5,3.5,3.5-3.5Zm31.064,3.4,9.27,9.271-9.294,9.295-3.878-3.877,5.418-5.418L1545.827,45Zm-45.327,12.686,35.909-12.6V52.5H1534.8V48.647l-30.426,10.948Z" transform="translate(-258.553 -6.553)" fill="#fff" fill-rule="evenodd"/>
    <path id="Path_46" data-name="Path 46" d="M1663.448,59.576l.012-12.016h-5.488l-.012,12.016Zm12.891-4.816,4.806-13.569h-11.839v4.815h4.819l-4.819,13.569h11.839V54.76Zm21.2,4.816h5.47L1697.219,41.2h-5.47l-5.793,18.377h5.471l3.057-10.8Zm-51.092-13.639a.541.541,0,0,1,.556.588v7.689a.543.543,0,0,1-.556.588h-3.36V45.937Zm-8.807,13.639h10.893a3.577,3.577,0,0,0,3.594-3.561V44.735a3.585,3.585,0,0,0-3.594-3.594h-10.893ZM1660.7,37.615l-3.576,3.576,3.576,3.576,3.576-3.576Z" transform="translate(-283.961 -6.535)" fill="#fff"/>
    <rect id="Rectangle_20" data-name="Rectangle 20" width="35.788" height="35.825" transform="translate(1309.157 25.912)" fill="#a1b7a1"/>
    <g id="Group_59" data-name="Group 59" transform="translate(1317.029 33.802)">
      <g id="Group_57" data-name="Group 57">
        <path id="Path_47" data-name="Path 47" d="M1605.44,60.963h-4.531V53.206h-7.756V48.675h7.756V40.919h4.531v7.756h7.756v4.531h-7.756Z" transform="translate(-1593.153 -40.919)" fill="#fff"/>
      </g>
      <g id="Group_58" data-name="Group 58" transform="translate(1.334 1.333)">
        <path id="Path_48" data-name="Path 48" d="M1605.062,52.828l-1.6-1.6-1.6,1.6-7.086-7.087,3.2-3.2,5.484,5.485,5.485-5.485,3.2,3.2Z" transform="translate(-1594.772 -42.537)" fill="#fff"/>
      </g>
    </g>
  </g>
</svg>
