<svg xmlns="http://www.w3.org/2000/svg" width="60.228" height="59.58" viewBox="0 0 60.228 59.58">
  <g id="Group_14" data-name="Group 14" style="mix-blend-mode: multiply;isolation: isolate">
    <g id="Group_2" data-name="Group 2" transform="translate(11.451 9.15)">
      <g id="Group_1" data-name="Group 1">
        <circle id="Ellipse_1" data-name="Ellipse 1" cx="19.825" cy="19.825" r="19.825" fill="#6f6f6e"/>
      </g>
    </g>
    <g id="Group_4" data-name="Group 4" transform="translate(2.324)">
      <g id="Group_3" data-name="Group 3">
        <path id="Path_1" data-name="Path 1" d="M762.052,1939.544v-4.833a24.118,24.118,0,1,0-24.118-24.119H733.1a28.954,28.954,0,1,1,28.951,28.952Z" transform="translate(-733.101 -1881.64)" fill="#6f6f6e"/>
      </g>
    </g>
    <g id="Group_9" data-name="Group 9" transform="translate(20.83 23.15)">
      <g id="Group_6" data-name="Group 6" transform="translate(0 0.331)">
        <g id="Group_5" data-name="Group 5">
          <path id="Path_2" data-name="Path 2" d="M764.167,1912.875a14.763,14.763,0,0,1-.082,1.743,3.961,3.961,0,0,1-.265,1.072,3.017,3.017,0,0,1-.514.787,3.084,3.084,0,0,1-1.378.807,6.509,6.509,0,0,1-2,.294,6.959,6.959,0,0,1-.928-.058l.48,3.941-2.244-.008-1.672-10.665,2.559-.646.563,4.662a7,7,0,0,0,1.126.082,7.931,7.931,0,0,0,1.25-.095,3.709,3.709,0,0,0,.97-.269l-.232-4.29h2.3Q764.167,1911.939,764.167,1912.875Z" transform="translate(-755.564 -1910.142)" fill="#fff"/>
        </g>
      </g>
      <g id="Group_8" data-name="Group 8" transform="translate(11.53)">
        <g id="Group_7" data-name="Group 7">
          <path id="Path_3" data-name="Path 3" d="M777.314,1917.71q-1.337.1-2.654.1-1.085,0-1.971-.074l.414,3.651-2.236-.008-1.308-9.829,2.542-.381.546,4.058.886-.008q-.132-.539-.211-1.077a6.329,6.329,0,0,1-.079-.885,3.385,3.385,0,0,1,.981-2.609,3.92,3.92,0,0,1,2.77-.91,8.894,8.894,0,0,1,1.831.207v2.592q-.853-.074-1.582-.074a13.337,13.337,0,0,0-1.764.107l.306,2.592a36.4,36.4,0,0,0,3.959-.356l-.124,2.617A21.491,21.491,0,0,1,777.314,1917.71Z" transform="translate(-769.559 -1909.74)" fill="#fff"/>
        </g>
      </g>
    </g>
    <g id="Group_11" data-name="Group 11" transform="translate(0 22.058)">
      <g id="Group_10" data-name="Group 10">
        <path id="Path_4" data-name="Path 4" d="M730.28,1922.6h7.157v-7.387l-3.953-6.8h-3.2Z" transform="translate(-730.28 -1908.415)" fill="#6f6f6e"/>
      </g>
    </g>
    <g id="Group_13" data-name="Group 13" transform="translate(28.471 53.054)">
      <g id="Group_12" data-name="Group 12">
        <rect id="Rectangle_6" data-name="Rectangle 6" width="4.688" height="6.526" fill="#6f6f6e"/>
      </g>
    </g>
  </g>
</svg>
