<svg xmlns="http://www.w3.org/2000/svg" width="62.682" height="52.121" viewBox="0 0 62.682 52.121">
  <g id="Group_38" data-name="Group 38" style="mix-blend-mode: multiply;isolation: isolate">
    <g id="Group_32" data-name="Group 32" transform="translate(2.136)">
      <path id="Path_10" data-name="Path 10" d="M383.923,1885.434l-20.4,30.1,17.254,16.121H409.35l14.417-.35s2.66-14.747-7.889-18.667v-3.844H398.267v10.267H385.812v-28.967h4.408v-4.66Z" transform="translate(-363.52 -1885.434)" fill="#6f6f6e"/>
    </g>
    <g id="Group_34" data-name="Group 34" transform="translate(0 31.125)">
      <g id="Group_33" data-name="Group 33">
        <path id="Path_11" data-name="Path 11" d="M371.882,1942.531a8.362,8.362,0,1,1,8.362-8.362A8.371,8.371,0,0,1,371.882,1942.531Z" transform="translate(-361.384 -1923.671)" fill="#fff"/>
        <path id="Path_12" data-name="Path 12" d="M371.425,1944.21a10.5,10.5,0,1,1,10.5-10.5A10.51,10.51,0,0,1,371.425,1944.21Zm0-16.723a6.225,6.225,0,1,0,6.225,6.225A6.231,6.231,0,0,0,371.425,1927.487Z" transform="translate(-360.927 -1923.214)" fill="#6f6f6e"/>
      </g>
    </g>
    <g id="Group_36" data-name="Group 36" transform="translate(37.456 31.125)">
      <g id="Group_35" data-name="Group 35">
        <path id="Path_13" data-name="Path 13" d="M417.347,1942.531a8.362,8.362,0,1,1,8.362-8.362A8.371,8.371,0,0,1,417.347,1942.531Z" transform="translate(-406.849 -1923.671)" fill="#fff"/>
        <path id="Path_14" data-name="Path 14" d="M416.89,1944.21a10.5,10.5,0,1,1,10.5-10.5A10.51,10.51,0,0,1,416.89,1944.21Zm0-16.723a6.225,6.225,0,1,0,6.225,6.225A6.232,6.232,0,0,0,416.89,1927.487Z" transform="translate(-406.392 -1923.214)" fill="#6f6f6e"/>
      </g>
    </g>
    <g id="Group_37" data-name="Group 37" transform="translate(36.88 17.507)">
      <rect id="Rectangle_11" data-name="Rectangle 11" width="21.162" height="7.053" fill="#6f6f6e"/>
    </g>
  </g>
</svg>
