<svg xmlns="http://www.w3.org/2000/svg" width="90.087" height="145.588" viewBox="0 0 90.087 145.588">
  <g id="_1" data-name="1" transform="translate(-1090 -3175.912)">
    <g id="hollywood-star" transform="translate(1089.999 3175.875)">
      <circle id="Ellipse_29" data-name="Ellipse 29" cx="7.918" cy="7.918" r="7.918" transform="translate(37.337 37.161)" fill="#2d2d2d"/>
      <path id="Path_76" data-name="Path 76" d="M89.933,34.787a2.642,2.642,0,0,0-2.065-1.717L60.984,28.75,47.622,1.391a2.745,2.745,0,0,0-4.732,0L29.527,28.75,2.221,33.07A2.639,2.639,0,0,0,.661,37.421L19.838,58.488,14.732,87a2.64,2.64,0,0,0,3.719,2.859l26.8-12.835,26.8,12.826A2.64,2.64,0,0,0,75.779,87L70.673,58.488,89.428,37.421a2.632,2.632,0,0,0,.505-2.634ZM55.813,68.834H34.7a2.639,2.639,0,1,1,0-5.279H55.813a2.639,2.639,0,0,1,0,5.279ZM45.256,58.276a13.2,13.2,0,1,1,13.2-13.2A13.212,13.212,0,0,1,45.256,58.276Z" transform="translate(0)" fill="#2d2d2d"/>
    </g>
    <line id="Line_33" data-name="Line 33" y1="44.671" transform="translate(1135.5 3276.829)" fill="none" stroke="#232323" stroke-width="1"/>
  </g>
</svg>
