<svg xmlns="http://www.w3.org/2000/svg" width="67.78" height="140.898" viewBox="0 0 67.78 140.898">
  <g id="_3" data-name="3" transform="translate(-498.6 -3180.602)">
    <line id="Line_35" data-name="Line 35" y1="44.671" transform="translate(532.5 3276.829)" fill="none" stroke="#3c3c3c" stroke-width="1"/>
    <g id="tool" transform="translate(498.6 3180.598)">
      <g id="Group_42" data-name="Group 42" transform="translate(0 0.004)">
        <path id="Path_77" data-name="Path 77" d="M16.891,16.46a4.362,4.362,0,0,0,3.991,3.069H38.567a4.2,4.2,0,0,0,4.049-3.179l5.627-10.82.136-.3a3.524,3.524,0,0,0-.473-3.287A4.513,4.513,0,0,0,44.3,0H15.146a4.481,4.481,0,0,0-3.54,1.781,3.675,3.675,0,0,0-.594,3.284Z" transform="translate(4.166 -0.004)" fill="#2c2c2c"/>
        <path id="Path_78" data-name="Path 78" d="M42.557,37.936a4.361,4.361,0,0,0-3.99-3.071H20.88a4.2,4.2,0,0,0-4.046,3.179L11.2,48.865l-.138.306a3.538,3.538,0,0,0,.479,3.287,4.475,4.475,0,0,0,3.6,1.935H44.3a4.474,4.474,0,0,0,3.537-1.775,3.68,3.68,0,0,0,.6-3.284Z" transform="translate(4.166 13.376)" fill="#2c2c2c"/>
        <path id="Path_79" data-name="Path 79" d="M27.978,15.406A12.57,12.57,0,1,0,40.548,27.975,12.583,12.583,0,0,0,27.978,15.406Zm0,19.606a7.035,7.035,0,1,1,7.034-7.035A7.041,7.041,0,0,1,27.978,35.012Z" transform="translate(5.914 5.907)" fill="#2c2c2c"/>
        <path id="Path_80" data-name="Path 80" d="M50.384,10.855a3.619,3.619,0,0,0-1.052.156l-11.4,5.88a4.362,4.362,0,0,0-3.071,3.988V38.567a4.2,4.2,0,0,0,3.181,4.046l10.819,5.629.3.136a3.267,3.267,0,0,0,1.176.213A4.342,4.342,0,0,0,54.4,44.3V15.142A4.216,4.216,0,0,0,50.384,10.855Z" transform="translate(13.381 4.161)" fill="#2c2c2c"/>
        <path id="Path_81" data-name="Path 81" d="M19.532,38.564V20.876a4.2,4.2,0,0,0-3.18-4.045L5.534,11.2l-.3-.137a3.329,3.329,0,0,0-1.175-.21A4.342,4.342,0,0,0,0,15.142V44.3a4.214,4.214,0,0,0,4.009,4.291,3.562,3.562,0,0,0,1.052-.159l11.394-5.877A4.361,4.361,0,0,0,19.532,38.564Z" transform="translate(0 4.161)" fill="#2c2c2c"/>
      </g>
    </g>
  </g>
</svg>
