<svg xmlns="http://www.w3.org/2000/svg" width="64.594" height="146.551" viewBox="0 0 64.594 146.551">
  <g id="_5" data-name="5" transform="translate(-1102.759 -3480.949)">
    <line id="Line_37" data-name="Line 37" y1="44.671" transform="translate(1135.5 3582.829)" fill="none" stroke="#232323" stroke-width="1"/>
    <path id="bag" d="M132.509,81.933l-4.573-51.809a7.467,7.467,0,0,0-7.478-6.848,1.635,1.635,0,0,0-1.633,1.633v8.077a1.535,1.535,0,0,1-1.4,1.549,1.5,1.5,0,0,1-1.6-1.5V15.58a15.58,15.58,0,1,0-31.16,0v7.7H80.024a7.467,7.467,0,0,0-7.478,6.848L67.973,81.933a7.515,7.515,0,0,0,7.48,8.169h49.575A7.515,7.515,0,0,0,132.509,81.933Zm-40.9-1.78H80.719a1.5,1.5,0,0,1,0-3H91.606a1.5,1.5,0,0,1,0,3Zm0-7.509H80.719a1.5,1.5,0,0,1,0-3H91.606a1.5,1.5,0,0,1,0,3Zm21.212-49.368H92.3a1.634,1.634,0,0,0-1.633,1.633v8.077a1.535,1.535,0,0,1-1.4,1.549,1.5,1.5,0,0,1-1.6-1.5V15.58a12.577,12.577,0,0,1,25.154,0Z" transform="translate(1034.815 3480.949)" fill="#2c2c2c"/>
  </g>
</svg>
