<svg xmlns="http://www.w3.org/2000/svg" width="110.164" height="126.597" viewBox="0 0 110.164 126.597">
  <g id="_6" data-name="6" transform="translate(-779.918 -3500.903)">
    <line id="Line_38" data-name="Line 38" y1="44.671" transform="translate(835.5 3582.829)" fill="none" stroke="#3c3c3c" stroke-width="1"/>
    <path id="fast-delivery" d="M78.535.649c9.551,2.216,13.2,7.8,17.786,15.488H78.535ZM22.716,16.783c1.87,0,3.227.9,3.227,3.012a3.227,3.227,0,0,1-3.218,3.227H3.227a3.227,3.227,0,1,0,0,6.455H32.274a3.227,3.227,0,1,1,.013,6.455H3.227a3.227,3.227,0,0,0,0,6.455h7.1V52.07A3.227,3.227,0,0,0,13.555,55.3h6.488a12.374,12.374,0,0,0,24.248,0H77.061a12.374,12.374,0,0,0,24.248,0h5.627a3.227,3.227,0,0,0,3.227-3.227V32.705c0-9.47-9.988-10.1-10-10.113H75.307a3.227,3.227,0,0,1-3.227-3.227V0H13.555a3.227,3.227,0,0,0-3.227,3.227v7.1H6.455a3.227,3.227,0,0,0,0,6.455ZM93.369,48.639a5.917,5.917,0,1,1-10.1,4.184A5.918,5.918,0,0,1,93.369,48.639Zm-57.019,0a5.917,5.917,0,1,1-10.1,4.184A5.918,5.918,0,0,1,36.351,48.639Zm0,0" transform="translate(779.918 3500.903)" fill="#2c2c2c" fill-rule="evenodd"/>
  </g>
</svg>
