<svg xmlns="http://www.w3.org/2000/svg" width="138.245" height="154.283" viewBox="0 0 138.245 154.283">
  <g id="_7" data-name="7" transform="translate(-314.688 -3473.217)">
    <line id="Line_39" data-name="Line 39" y1="44.671" transform="translate(381.5 3582.829)" fill="none" stroke="#3c3c3c" stroke-width="1"/>
    <g id="noun_Meeting_2269492" transform="translate(287.625 3381.712)">
      <g id="Group_43" data-name="Group 43" transform="translate(27.064 91.504)">
        <path id="Path_85" data-name="Path 85" d="M77.341,57c4.8,0,8.722,4.361,8.722,9.158a8.722,8.722,0,0,1-17.444,0C68.618,61.361,72.543,57,77.341,57ZM57.716,93.633H98.273l36.2,58.438H21.519ZM44.633,64.85a8.851,8.851,0,0,1,9.158,8.722,8.943,8.943,0,0,1-9.158,9.158,8.851,8.851,0,0,1-8.722-9.158A8.748,8.748,0,0,1,44.633,64.85Zm65.416,0a8.748,8.748,0,0,1,8.722,8.722,8.851,8.851,0,0,1-8.722,9.158,9.212,9.212,0,0,1-9.158-9.158C100.89,68.775,105.251,64.85,110.048,64.85Zm-8.286,21.369h16.572c.436,0,.872.436,1.308.436a13.419,13.419,0,0,0-2.617,8.286,14.174,14.174,0,0,0,4.8,10.9v.436h0a8.915,8.915,0,0,0-8.286,6.105L100.454,91.016H97.837v-.872A3.909,3.909,0,0,1,101.762,86.219Zm-64.979,0H52.919a3.909,3.909,0,0,1,3.925,3.925v.872H55.535l-14.391,23.55a9.287,9.287,0,0,0-8.286-8.286v-.436a16.308,16.308,0,0,0,4.361-10.9,18.038,18.038,0,0,0-2.181-8.286C35.475,86.655,35.911,86.219,36.783,86.219ZM22.828,84.038a10.9,10.9,0,1,1-10.9,10.9A10.709,10.709,0,0,1,22.828,84.038Zm109.026,0a10.9,10.9,0,1,1-10.9,10.9A10.709,10.709,0,0,1,131.853,84.038ZM121.823,110.2h20.061a4.777,4.777,0,0,1,4.361,4.8V147.71a4.777,4.777,0,0,1-4.361,4.8H138.4l-21.369-34.452V115A4.84,4.84,0,0,1,121.823,110.2ZM12.8,110.2H32.858a4.777,4.777,0,0,1,4.361,4.8v5.669L17.594,152.507H12.8a4.84,4.84,0,0,1-4.8-4.8V115A4.84,4.84,0,0,1,12.8,110.2Zm56.257-31.4H85.626a3.909,3.909,0,0,1,3.925,3.925v8.286H65.566V82.73C65.566,80.55,66.874,78.805,69.055,78.805Z" transform="translate(-8 -57)" fill="#2c2c2c" fill-rule="evenodd"/>
      </g>
    </g>
  </g>
</svg>
