<svg xmlns="http://www.w3.org/2000/svg" width="50.176" height="84.628" viewBox="0 0 50.176 84.628">
  <g id="Diza_En" data-name="Diza En" transform="translate(-322.38 -131.381)">
    <path id="Path_13" data-name="Path 13" d="M364.192,149.4h-.463a8.361,8.361,0,0,0-7.891-11.105h-.127a8.361,8.361,0,0,0-16.471,0h-.127a8.361,8.361,0,0,0-7.89,11.105h-.463a8.364,8.364,0,0,0-8.379,8.354v39.681a6.323,6.323,0,0,0,6.323,6.323h37.528a6.323,6.323,0,0,0,6.325-6.323V157.755A8.364,8.364,0,0,0,364.192,149.4Z" transform="translate(0)" fill="#231f20"/>
    <circle id="Ellipse_16" data-name="Ellipse 16" cx="1.42" cy="1.42" r="1.42" transform="translate(322.38 211.037)" fill="#231f20"/>
    <circle id="Ellipse_17" data-name="Ellipse 17" cx="1.42" cy="1.42" r="1.42" transform="translate(369.715 211.037)" fill="#231f20"/>
    <path id="Path_14" data-name="Path 14" d="M344.018,443.537h-.448V438.37h.751l1.227,4.505h.013l1.255-4.505h.731v5.167H347.1v-4.719h-.015l-1.273,4.719h-.476l-1.3-4.719h-.013Z" transform="translate(-15.797 -228.85)"/>
    <path id="Path_15" data-name="Path 15" d="M362.46,445.256c0-.853.158-1.906,1.206-1.906s1.184,1.15,1.184,1.983-.109,2.013-1.2,2.013C362.488,447.346,362.46,446.14,362.46,445.256Zm1.99.084c0-.593,0-1.639-.832-1.639-.718,0-.764,1.038-.764,1.563,0,.565-.041,1.731.779,1.731S364.45,445.913,364.45,445.34Z" transform="translate(-29.878 -232.563)"/>
    <path id="Path_16" data-name="Path 16" d="M376.269,438.37h.4v5.167h-.4v-.359h-.013a.86.86,0,0,1-.82.456c-1.018,0-1.1-1.247-1.1-2.013s.089-1.983,1.11-1.983a1.046,1.046,0,0,1,.807.4h.013Zm-1.527,3.327c0,.537.036,1.586.786,1.586.812,0,.743-1.29.743-1.812s-.033-1.481-.764-1.481-.769,1.191-.769,1.708Z" transform="translate(-38.735 -228.85)"/>
    <path id="Path_17" data-name="Path 17" d="M388.311,445.328H386.53c0,.489-.069,1.667.718,1.667.565,0,.634-.532.667-.985h.387c0,.695-.282,1.336-1.061,1.336-1.061,0-1.11-1.2-1.11-1.985s.048-2.011,1.1-2.011c.881,0,1.089.868,1.089,1.591Zm-.4-.351c0-.484-.046-1.273-.695-1.273s-.69.827-.69,1.273Z" transform="translate(-47.524 -232.563)"/>
    <path id="Path_18" data-name="Path 18" d="M397.939,443.87h.015a.863.863,0,0,1,.9-.537v.42c-.618-.015-.9.384-.9.985v2.494h-.4v-3.8h.379Z" transform="translate(-56.044 -232.546)"/>
    <path id="Path_19" data-name="Path 19" d="M405.395,447.246H405v-3.8h.4v.372h.013a1.018,1.018,0,0,1,.863-.468.848.848,0,0,1,.888.881v3.019h-.4v-2.764c0-.433-.036-.784-.557-.784a.794.794,0,0,0-.807.743Z" transform="translate(-61.591 -232.56)"/>
    <path id="Path_20" data-name="Path 20" d="M423.25,443.537V438.37h.445v4.767h1.914v.4Z" transform="translate(-75.195 -228.85)"/>
    <path id="Path_21" data-name="Path 21" d="M435.37,439.024v-.654h.461v.654Zm.028,4.513v-3.8h.4v3.8Z" transform="translate(-84.23 -228.85)"/>
    <path id="Path_22" data-name="Path 22" d="M440.157,440.073h-.407v-.351h.407v-.415c0-.723.112-.993.888-.949v.351c-.537-.02-.489.137-.489.578v.435h.476v.351h-.476v3.451h-.4Z" transform="translate(-87.496 -228.837)"/>
    <path id="Path_23" data-name="Path 23" d="M448.411,445.328H446.63c0,.489-.069,1.667.718,1.667.565,0,.634-.532.667-.985h.387c0,.695-.283,1.336-1.061,1.336-1.061,0-1.11-1.2-1.11-1.985s.048-2.011,1.1-2.011c.881,0,1.087.868,1.087,1.591Zm-.4-.351c0-.484-.048-1.273-.695-1.273s-.69.827-.69,1.273Z" transform="translate(-92.326 -232.563)"/>
    <path id="Path_24" data-name="Path 24" d="M457.731,443.35a.968.968,0,0,1,1.033,1.066h-.392a.658.658,0,0,0-.657-.715.529.529,0,0,0-.563.606.613.613,0,0,0,.461.578c.675.311,1.247.6,1.247,1.413a.978.978,0,0,1-1.082,1.049,1,1,0,0,1-1.11-1.13h.407c.033.468.239.779.73.779a.652.652,0,0,0,.654-.718c0-1.018-1.654-.807-1.71-1.833A.894.894,0,0,1,457.731,443.35Z" transform="translate(-100.109 -232.563)"/>
    <path id="Path_25" data-name="Path 25" d="M468.058,444.293a1.411,1.411,0,0,1-.509.02c-.351-.122-.412-.3-.412-.659v-2.846h-.346v-.351h.346V439.34h.4v1.117h.529v.351h-.529v2.8c0,.132.013.326.2.359a.545.545,0,0,0,.331,0Z" transform="translate(-107.653 -229.574)"/>
    <path id="Path_26" data-name="Path 26" d="M472.876,448.47c.255.013.557.041.687-.234a4.19,4.19,0,0,0,.221-.7l-.985-3.818h.42l.786,3.08h0l.827-3.08h.407l-1.033,3.754c-.1.4-.234,1.033-.6,1.273a1.272,1.272,0,0,1-.743.076Z" transform="translate(-112.133 -232.839)"/>
    <path id="Path_27" data-name="Path 27" d="M485.09,443.537V438.37h.4v5.167Z" transform="translate(-121.295 -228.85)"/>
    <path id="Path_28" data-name="Path 28" d="M492.011,445.328H490.23c0,.489-.069,1.667.718,1.667.565,0,.634-.532.667-.985H492c0,.695-.283,1.336-1.061,1.336-1.061,0-1.11-1.2-1.11-1.985s.048-2.011,1.1-2.011c.881,0,1.087.868,1.087,1.591Zm-.4-.351c0-.484-.048-1.273-.695-1.273s-.69.827-.69,1.273Z" transform="translate(-124.829 -232.563)"/>
    <path id="Path_29" data-name="Path 29" d="M339.708,271.69h-1.145V237.583h2.291v31.7a5.465,5.465,0,0,0,4.307-5.332V238.013a5.46,5.46,0,0,0-5.452-5.452H333.67V230.27h6.038a7.75,7.75,0,0,1,7.743,7.743v25.942A7.75,7.75,0,0,1,339.708,271.69Z" transform="translate(-8.416 -73.718)" fill="#fff"/>
    <rect id="Rectangle_21" data-name="Rectangle 21" width="2.291" height="41.764" transform="translate(341.834 156.419)" fill="#fff"/>
    <path id="Path_30" data-name="Path 30" d="M425.773,271.7H418.01l6.414-39.137h-5.065V230.27h7.763l-6.414,39.137h5.065Z" transform="translate(-71.289 -73.718)" fill="#fff"/>
    <path id="Path_31" data-name="Path 31" d="M471.249,271.392h-2.291V232.561h-1.329a1.329,1.329,0,0,0-1.329,1.329v37.5H464.01v-37.5a3.625,3.625,0,0,1,3.619-3.619h3.619Z" transform="translate(-105.581 -73.718)" fill="#fff"/>
    <rect id="Rectangle_22" data-name="Rectangle 22" width="11.189" height="2.291" transform="translate(359.575 169.013)" fill="#fff"/>
    <path id="Path_32" data-name="Path 32" d="M383.841,178.278c-6.124,0-12.711-1.453-12.711-4.64S377.715,169,383.841,169s12.709,1.448,12.709,4.638S389.963,178.278,383.841,178.278Zm0-6.992c-6.834,0-10.27,1.71-10.423,2.362.153.629,3.589,2.339,10.423,2.339s10.232-1.693,10.418-2.349c-.186-.659-3.622-2.347-10.418-2.347Z" transform="translate(-36.342 -28.044)" fill="#fff"/>
  </g>
</svg>
