<svg xmlns="http://www.w3.org/2000/svg" width="178" height="242.484" viewBox="0 0 178 242.484">
  <g id="rahat" transform="translate(-594 -4842)">
    <line id="Line_41" data-name="Line 41" y1="58.706" transform="translate(682.267 5025.778)" fill="none" stroke="#3c3c3c" stroke-width="1"/>
    <g id="Ellipse_31" data-name="Ellipse 31" transform="translate(594 4842)" fill="none" stroke="#383838" stroke-width="1">
      <ellipse cx="89" cy="89.5" rx="89" ry="89.5" stroke="none"/>
      <ellipse cx="89" cy="89.5" rx="88.5" ry="89" fill="none"/>
    </g>
    <g id="product" transform="translate(635.232 4875.855)">
      <path id="Path_11" data-name="Path 11" d="M124.543,58.78h39.042a3.252,3.252,0,0,0,3.254-3.254V16.268a3.252,3.252,0,0,0-3.254-3.254h-9.761V9.761a9.761,9.761,0,0,0-19.521,0v3.254h-9.761a3.252,3.252,0,0,0-3.254,3.254V55.527A3.252,3.252,0,0,0,124.543,58.78ZM140.81,9.761a3.254,3.254,0,0,1,6.507,0v3.254H140.81Zm0,0" transform="translate(-94.981)" fill="#2c2c2c"/>
      <path id="Path_12" data-name="Path 12" d="M96.481,242.569A3.254,3.254,0,0,0,93.7,241a15.415,15.415,0,0,0-13.653,8.259l-9.98,19.047a9.741,9.741,0,0,1-8.648,5.229h-22.1a3.254,3.254,0,0,1,0-6.507H61.416a3.25,3.25,0,0,0,2.886-1.745l3.729-7.118a2.835,2.835,0,0,0-2.515-4.152H31.7a16.164,16.164,0,0,0-11.5,4.766L.953,278.021a3.252,3.252,0,0,0,0,4.6l16.268,16.2a3.25,3.25,0,0,0,4.6,0l12.341-12.278H61.416a22.721,22.721,0,0,0,20.176-12.2l14.984-28.579a3.242,3.242,0,0,0-.095-3.2Zm0,0" transform="translate(0 -188.726)" fill="#2c2c2c"/>
    </g>
  </g>
</svg>
