<svg xmlns="http://www.w3.org/2000/svg" width="179" height="242.484" viewBox="0 0 179 242.484">
  <g id="sari" transform="translate(-249 -4842)">
    <line id="Line_40" data-name="Line 40" y1="58.706" transform="translate(337.708 5025.778)" fill="none" stroke="#3c3c3c" stroke-width="1"/>
    <g id="megaphone" transform="translate(288.312 4875.852)">
      <g id="Group_21" data-name="Group 21" transform="translate(40.351 0.889)">
        <g id="Group_20" data-name="Group 20" transform="translate(0)">
          <path id="Path_4" data-name="Path 4" d="M270.588,49.321,227.273,6a6.51,6.51,0,1,0-9.208,9.2l43.321,43.318a6.507,6.507,0,0,0,9.2-9.2Z" transform="translate(-216.163 -4.1)" fill="#2c2c2c"/>
        </g>
      </g>
      <g id="Group_23" data-name="Group 23" transform="translate(23.287 17.983)">
        <g id="Group_22" data-name="Group 22">
          <path id="Path_5" data-name="Path 5" d="M153.246,82.9l-.326,1.634a69.945,69.945,0,0,1-15.426,31.245l23.567,23.567a69.712,69.712,0,0,1,31.094-15.577l1.637-.326Z" transform="translate(-137.494 -82.905)" fill="#2c2c2c"/>
        </g>
      </g>
      <g id="Group_25" data-name="Group 25" transform="translate(0 55.744)">
        <g id="Group_24" data-name="Group 24">
          <path id="Path_6" data-name="Path 6" d="M49.1,256.989,33,273.092A9.76,9.76,0,0,0,33,286.9l9.2,9.2A9.76,9.76,0,0,0,56,296.1l16.1-16.1ZM51.4,282.3a3.253,3.253,0,0,1-4.6-4.6l4.6-4.6a3.253,3.253,0,1,1,4.6,4.6Z" transform="translate(-30.136 -256.989)" fill="#2c2c2c"/>
        </g>
      </g>
      <g id="Group_27" data-name="Group 27" transform="translate(35.07 75.068)">
        <g id="Group_26" data-name="Group 26" transform="translate(0)">
          <path id="Path_7" data-name="Path 7" d="M212.3,367.593l4.426-4.426a9.753,9.753,0,0,0,0-13.8l-3.287-3.29a61.621,61.621,0,0,0-5.24,3.962l3.926,3.932a3.246,3.246,0,0,1,0,4.6l-4.5,4.5-6.612-6.406-9.2,9.2,14.762,14.3a6.508,6.508,0,0,0,9.2-9.208Z" transform="translate(-191.813 -346.075)" fill="#2c2c2c"/>
        </g>
      </g>
      <g id="Group_29" data-name="Group 29" transform="translate(65.448)">
        <g id="Group_28" data-name="Group 28">
          <path id="Path_8" data-name="Path 8" d="M335.118,0a3.252,3.252,0,0,0-3.254,3.254V9.761a3.254,3.254,0,1,0,6.507,0V3.254A3.252,3.252,0,0,0,335.118,0Z" transform="translate(-331.864 0)" fill="#2c2c2c"/>
        </g>
      </g>
      <g id="Group_31" data-name="Group 31" transform="translate(84.97 26.029)">
        <g id="Group_30" data-name="Group 30">
          <path id="Path_9" data-name="Path 9" d="M431.625,120h-6.507a3.254,3.254,0,0,0,0,6.507h6.507a3.254,3.254,0,0,0,0-6.507Z" transform="translate(-421.864 -120)" fill="#2c2c2c"/>
        </g>
      </g>
      <g id="Group_33" data-name="Group 33" transform="translate(78.463 6.507)">
        <g id="Group_32" data-name="Group 32" transform="translate(0)">
          <path id="Path_10" data-name="Path 10" d="M403.925,30.953a3.253,3.253,0,0,0-4.6,0l-6.507,6.507a3.253,3.253,0,0,0,4.6,4.6l6.507-6.507A3.253,3.253,0,0,0,403.925,30.953Z" transform="translate(-391.864 -30)" fill="#2c2c2c"/>
        </g>
      </g>
    </g>
    <g id="Ellipse_30" data-name="Ellipse 30" transform="translate(249 4842)" fill="none" stroke="#383838" stroke-width="1">
      <circle cx="89.5" cy="89.5" r="89.5" stroke="none"/>
      <circle cx="89.5" cy="89.5" r="89" fill="none"/>
    </g>
  </g>
</svg>
