<svg xmlns="http://www.w3.org/2000/svg" width="70" height="113.5" viewBox="0 0 70 113.5">
  <g id="service" transform="translate(-1059 -2460)">
    <circle id="Ellipse_21" data-name="Ellipse 21" cx="35" cy="35" r="35" transform="translate(1059 2460)"/>
    <line id="Line_32" data-name="Line 32" y2="43" transform="translate(1093.5 2530.5)" fill="none" stroke="#000" stroke-width="1"/>
    <g id="technical-support" transform="translate(1069.748 2470.748)">
      <path id="Path_70" data-name="Path 70" d="M8.531,37.511A3.955,3.955,0,0,0,6.62,38,22.368,22.368,0,0,1,28.705,2.337.947.947,0,0,0,29.08.48,24.433,24.433,0,0,0,24.252,0,24.253,24.253,0,0,0,5.219,39.283a3.981,3.981,0,1,0,3.312-1.772ZM10,42.963a2.084,2.084,0,1,1,.611-1.474A2.07,2.07,0,0,1,10,42.963Zm0,0" fill="#fff"/>
      <path id="Path_71" data-name="Path 71" d="M222.06,38.236a3.971,3.971,0,1,0-1.4,1.285A22.368,22.368,0,0,1,198.617,75.19a.947.947,0,1,0-.372,1.858,24.449,24.449,0,0,0,4.782.471A24.253,24.253,0,0,0,222.06,38.236Zm-4.785-.732a2.085,2.085,0,1,1,1.474.61A2.071,2.071,0,0,1,217.275,37.5Zm0,0" transform="translate(-178.775 -29.015)" fill="#fff"/>
      <path id="Path_72" data-name="Path 72" d="M87.318,107.537a.948.948,0,0,0,.947.947h5.924a.947.947,0,0,0,.947-.947V105.7a14.836,14.836,0,0,0,3.556-1.474l1.3,1.3a.947.947,0,0,0,1.34,0l4.187-4.19a.948.948,0,0,0,0-1.34l-1.3-1.3a14.835,14.835,0,0,0,1.474-3.556h1.83a.947.947,0,0,0,.947-.947V88.272a.947.947,0,0,0-.947-.947h-1.83a14.838,14.838,0,0,0-1.473-3.555l1.288-1.288a.948.948,0,0,0,0-1.34l-4.19-4.187a.947.947,0,0,0-1.34,0l-1.286,1.287a14.836,14.836,0,0,0-3.556-1.474v-1.82A.947.947,0,0,0,94.189,74H88.266a.948.948,0,0,0-.947.947v1.82a14.823,14.823,0,0,0-3.555,1.473l-1.287-1.287a.948.948,0,0,0-1.34,0l-4.19,4.187a.947.947,0,0,0,0,1.34l1.288,1.288a14.833,14.833,0,0,0-1.474,3.555H74.935a.947.947,0,0,0-.947.947l0,5.924a.947.947,0,0,0,.947.948h1.83A14.835,14.835,0,0,0,78.235,98.7l-1.3,1.3a.947.947,0,0,0,0,1.34l4.187,4.19a.948.948,0,0,0,.67.278h0a.947.947,0,0,0,.67-.278l1.3-1.3a14.848,14.848,0,0,0,3.556,1.474Zm-3.184-5.3a.948.948,0,0,0-1.184.126L81.8,103.514l-2.848-2.85L80.1,99.511a.947.947,0,0,0,.126-1.184A12.967,12.967,0,0,1,78.433,94a.948.948,0,0,0-.926-.748H75.879l0-4.029h1.625a.947.947,0,0,0,.926-.748,12.969,12.969,0,0,1,1.794-4.331.947.947,0,0,0-.126-1.184l-1.145-1.145,2.85-2.848,1.144,1.144a.948.948,0,0,0,1.184.126,12.962,12.962,0,0,1,4.331-1.794.948.948,0,0,0,.748-.926V75.895h4.029v1.618a.947.947,0,0,0,.748.926,12.973,12.973,0,0,1,4.331,1.794.947.947,0,0,0,1.184-.126l1.144-1.144,2.85,2.848-1.145,1.145a.947.947,0,0,0-.126,1.184,12.976,12.976,0,0,1,1.794,4.331.947.947,0,0,0,.926.748h1.628v4.029h-1.628a.948.948,0,0,0-.926.748,12.965,12.965,0,0,1-1.794,4.331.948.948,0,0,0,.126,1.184l1.152,1.152-2.848,2.85-1.154-1.153a.947.947,0,0,0-1.184-.126,12.976,12.976,0,0,1-4.331,1.794.947.947,0,0,0-.748.926v1.635H89.213v-1.635a.948.948,0,0,0-.748-.926,12.968,12.968,0,0,1-4.331-1.794Zm0,0" transform="translate(-66.975 -66.99)" fill="#fff"/>
      <path id="Path_73" data-name="Path 73" d="M189.027,181.2a7.828,7.828,0,1,0-7.828,7.828A7.837,7.837,0,0,0,189.027,181.2Zm-13.761,0a5.933,5.933,0,1,1,5.933,5.933A5.94,5.94,0,0,1,175.266,181.2Zm0,0" transform="translate(-156.947 -156.947)" fill="#fff"/>
      <path id="Path_74" data-name="Path 74" d="M339.025,19.7a.948.948,0,1,0-.669-.278A.954.954,0,0,0,339.025,19.7Zm0,0" transform="translate(-306.05 -16.122)" fill="#fff"/>
      <path id="Path_75" data-name="Path 75" d="M155.306,474.359a.948.948,0,1,0,.67.278A.955.955,0,0,0,155.306,474.359Zm0,0" transform="translate(-139.736 -429.42)" fill="#fff"/>
    </g>
  </g>
</svg>
