<svg xmlns="http://www.w3.org/2000/svg" width="70" height="113.5" viewBox="0 0 70 113.5">
  <g id="story" transform="translate(-1139 -885)">
    <circle id="Ellipse_20" data-name="Ellipse 20" cx="35" cy="35" r="35" transform="translate(1139 885)"/>
    <g id="study" transform="translate(1151.451 852.576)">
      <path id="Path_53" data-name="Path 53" d="M297.191,104.07a28.317,28.317,0,0,1-5.907-1.186,10.7,10.7,0,0,0-7.5.359.661.661,0,1,0,.522,1.214,9.409,9.409,0,0,1,6.6-.308,29.621,29.621,0,0,0,6.187,1.238l.051,0a.661.661,0,0,0,.05-1.319Z" transform="translate(-258.426 -47.152)" fill="#cfcfcf"/>
      <path id="Path_54" data-name="Path 54" d="M297.191,135.945a28.31,28.31,0,0,1-5.907-1.186,10.7,10.7,0,0,0-7.5.359.661.661,0,1,0,.522,1.214,9.409,9.409,0,0,1,6.6-.308,29.616,29.616,0,0,0,6.187,1.238l.051,0a.661.661,0,0,0,.05-1.319Z" transform="translate(-258.426 -76.22)" fill="#cfcfcf"/>
      <path id="Path_55" data-name="Path 55" d="M297.191,295.322a28.311,28.311,0,0,1-5.907-1.186,10.7,10.7,0,0,0-7.5.359.661.661,0,1,0,.522,1.214,9.411,9.411,0,0,1,6.6-.308,29.617,29.617,0,0,0,6.187,1.238l.051,0a.661.661,0,0,0,.05-1.319Z" transform="translate(-258.426 -221.559)" fill="#cfcfcf"/>
      <path id="Path_56" data-name="Path 56" d="M297.191,327.2a28.317,28.317,0,0,1-5.907-1.186,10.7,10.7,0,0,0-7.5.359.661.661,0,1,0,.522,1.214,9.409,9.409,0,0,1,6.6-.308,29.62,29.62,0,0,0,6.187,1.238l.051,0a.661.661,0,0,0,.05-1.319Z" transform="translate(-258.426 -250.627)" fill="#cfcfcf"/>
      <path id="Path_57" data-name="Path 57" d="M297.191,167.821a28.31,28.31,0,0,1-5.907-1.186,10.7,10.7,0,0,0-7.5.359.661.661,0,1,0,.522,1.214,9.41,9.41,0,0,1,6.6-.308,29.621,29.621,0,0,0,6.187,1.238l.051,0a.661.661,0,0,0,.05-1.319Z" transform="translate(-258.426 -105.288)" fill="#cfcfcf"/>
      <path id="Path_58" data-name="Path 58" d="M297.191,231.571a28.307,28.307,0,0,1-5.907-1.186,10.7,10.7,0,0,0-7.5.359.661.661,0,1,0,.522,1.214,9.41,9.41,0,0,1,6.6-.308,29.624,29.624,0,0,0,6.187,1.238l.051,0a.661.661,0,0,0,.05-1.319Z" transform="translate(-258.426 -163.423)" fill="#cfcfcf"/>
      <path id="Path_59" data-name="Path 59" d="M297.191,199.7a28.317,28.317,0,0,1-5.907-1.186,10.7,10.7,0,0,0-7.5.359.661.661,0,1,0,.522,1.214,9.41,9.41,0,0,1,6.6-.308,29.619,29.619,0,0,0,6.187,1.238l.051,0a.661.661,0,0,0,.05-1.319Z" transform="translate(-258.426 -134.356)" fill="#cfcfcf"/>
      <path id="Path_60" data-name="Path 60" d="M297.191,263.446a28.3,28.3,0,0,1-5.907-1.186,10.7,10.7,0,0,0-7.5.359.661.661,0,1,0,.522,1.214,9.41,9.41,0,0,1,6.6-.308,29.612,29.612,0,0,0,6.187,1.238l.051,0a.661.661,0,0,0,.05-1.319Z" transform="translate(-258.426 -192.491)" fill="#cfcfcf"/>
      <path id="Path_61" data-name="Path 61" d="M65.608,105.389l.051,0a29.616,29.616,0,0,0,6.187-1.238,9.409,9.409,0,0,1,6.6.308.661.661,0,0,0,.522-1.214,10.7,10.7,0,0,0-7.5-.359,28.319,28.319,0,0,1-5.907,1.186.661.661,0,0,0,.05,1.319Z" transform="translate(-59.228 -47.152)" fill="#cfcfcf"/>
      <path id="Path_62" data-name="Path 62" d="M65.608,137.265l.051,0a29.607,29.607,0,0,0,6.187-1.238,9.409,9.409,0,0,1,6.6.308.661.661,0,1,0,.522-1.214,10.7,10.7,0,0,0-7.5-.359,28.312,28.312,0,0,1-5.907,1.186.661.661,0,0,0,.05,1.319Z" transform="translate(-59.228 -76.22)" fill="#cfcfcf"/>
      <path id="Path_63" data-name="Path 63" d="M65.608,296.641l.051,0a29.611,29.611,0,0,0,6.187-1.238,9.409,9.409,0,0,1,6.6.308.661.661,0,0,0,.522-1.214,10.7,10.7,0,0,0-7.5-.359,28.307,28.307,0,0,1-5.907,1.186.661.661,0,0,0,.05,1.319Z" transform="translate(-59.228 -221.559)" fill="#cfcfcf"/>
      <path id="Path_64" data-name="Path 64" d="M65.608,328.516l.051,0a29.611,29.611,0,0,0,6.187-1.238,9.408,9.408,0,0,1,6.6.308.661.661,0,1,0,.522-1.214,10.7,10.7,0,0,0-7.5-.359,28.314,28.314,0,0,1-5.907,1.186.661.661,0,0,0,.05,1.319Z" transform="translate(-59.228 -250.627)" fill="#cfcfcf"/>
      <path id="Path_65" data-name="Path 65" d="M65.608,169.14l.051,0a29.614,29.614,0,0,0,6.187-1.238,9.409,9.409,0,0,1,6.6.308.661.661,0,1,0,.522-1.214,10.7,10.7,0,0,0-7.5-.359,28.314,28.314,0,0,1-5.907,1.186.661.661,0,0,0,.05,1.319Z" transform="translate(-59.228 -105.288)" fill="#cfcfcf"/>
      <path id="Path_66" data-name="Path 66" d="M65.608,232.891l.051,0a29.615,29.615,0,0,0,6.187-1.238,9.408,9.408,0,0,1,6.6.308.661.661,0,0,0,.522-1.214,10.7,10.7,0,0,0-7.5-.359,28.309,28.309,0,0,1-5.907,1.186.661.661,0,0,0,.05,1.319Z" transform="translate(-59.228 -163.424)" fill="#cfcfcf"/>
      <path id="Path_67" data-name="Path 67" d="M65.608,201.015l.051,0a29.613,29.613,0,0,0,6.187-1.238,9.409,9.409,0,0,1,6.6.308.661.661,0,0,0,.522-1.214,10.7,10.7,0,0,0-7.5-.359,28.319,28.319,0,0,1-5.907,1.186.661.661,0,0,0,.05,1.319Z" transform="translate(-59.228 -134.355)" fill="#cfcfcf"/>
      <path id="Path_68" data-name="Path 68" d="M65.608,264.766l.051,0a29.607,29.607,0,0,0,6.187-1.238,9.408,9.408,0,0,1,6.6.308.661.661,0,1,0,.522-1.214,10.7,10.7,0,0,0-7.5-.359,28.3,28.3,0,0,1-5.907,1.186.661.661,0,0,0,.05,1.319Z" transform="translate(-59.228 -192.491)" fill="#cfcfcf"/>
      <path id="Path_69" data-name="Path 69" d="M43.482,54.425H42.448v-.6a1.45,1.45,0,0,0-1.564-1.446,20.344,20.344,0,0,1-6.453-.765.661.661,0,0,0-.325,1.281,21.5,21.5,0,0,0,6.883.8.128.128,0,0,1,.138.129V80.479A23.407,23.407,0,0,1,32.858,79.3a10.946,10.946,0,0,0-9.65,1.571v-26.4a9.45,9.45,0,0,1,7.872-2.352.661.661,0,1,0,.21-1.3,10.687,10.687,0,0,0-8.745,2.472,10.78,10.78,0,0,0-10.309-2.11,22.442,22.442,0,0,1-8.025,1.2,1.45,1.45,0,0,0-1.564,1.446v.6H1.613A1.615,1.615,0,0,0,0,56.038V82.826a1.615,1.615,0,0,0,1.613,1.613H18.729a.651.651,0,0,1,.593.361,3.572,3.572,0,0,0,6.452,0,.652.652,0,0,1,.593-.361H43.482a1.615,1.615,0,0,0,1.613-1.613V70.3a.661.661,0,1,0-1.321,0V82.826a.292.292,0,0,1-.292.292H26.366a1.978,1.978,0,0,0-1.787,1.117,2.249,2.249,0,0,1-4.063,0,1.978,1.978,0,0,0-1.787-1.118H1.613a.292.292,0,0,1-.292-.292V56.038a.292.292,0,0,1,.292-.292H2.648v25.3a.66.66,0,0,0,.492.639c.126.033,3.151.793,9.479-1.114a9.479,9.479,0,0,1,8.362,1.3,2.728,2.728,0,0,0,3.135,0,9.475,9.475,0,0,1,8.362-1.3c6.328,1.907,9.354,1.147,9.479,1.114a.66.66,0,0,0,.492-.639v-25.3h1.034a.292.292,0,0,1,.292.292V67.216a.661.661,0,0,0,1.321,0V56.038A1.615,1.615,0,0,0,43.482,54.425Zm-39.513-.6a.128.128,0,0,1,.138-.129,23.723,23.723,0,0,0,8.512-1.254,9.418,9.418,0,0,1,9.268,2.03v26.4a10.9,10.9,0,0,0-9.65-1.571c-.356.107-.748.219-1.11.316l-.013,0a21.6,21.6,0,0,1-7.145.858c0-1.836,0-26.165,0-26.657Z" transform="translate(0 0)" fill="#cfcfcf"/>
    </g>
    <line id="Line_31" data-name="Line 31" y2="43" transform="translate(1173.5 955.5)" fill="none" stroke="#000" stroke-width="1"/>
  </g>
</svg>
