<svg id="Layer_1" data-name="Layer 1" xmlns="http://www.w3.org/2000/svg" viewBox="0 0 283.46 283.46"><defs><style>.cls-1{fill:#fff;}</style></defs><path class="cls-1" d="M252.84,141.65a14,14,0,0,0-11.55-13.76c0-.07,0-.14,0-.21a14,14,0,0,0-18.55-13.19c0-.26,0-.52,0-.78a14,14,0,0,0-14-14H142.53a9.17,9.17,0,0,0-.92,0c-.31,0-.61,0-.92,0H74.41a14,14,0,0,0-14,14q0,.39,0,.78a14,14,0,0,0-18.55,13.19v.21a14,14,0,0,0,0,27.51v.22a14,14,0,0,0,18.55,13.19c0,.25,0,.51,0,.77a14,14,0,0,0,14,14h66.28c.31,0,.61,0,.92,0s.6,0,.92,0H208.8a14,14,0,0,0,14-14c0-.26,0-.52,0-.77a14,14,0,0,0,18.55-13.19c0-.08,0-.15,0-.22A14,14,0,0,0,252.84,141.65Z"/></svg>