<?xml version="1.0" encoding="utf-8"?>
<!-- Generator: Adobe Illustrator 22.1.0, SVG Export Plug-In . SVG Version: 6.00 Build 0)  -->
<svg version="1.1" id="Layer_1" xmlns="http://www.w3.org/2000/svg" xmlns:xlink="http://www.w3.org/1999/xlink" x="0px" y="0px"
	 viewBox="0 0 167.9 48.1" style="enable-background:new 0 0 167.9 48.1;" xml:space="preserve">
<style type="text/css">
	.st0{fill:none;stroke:#FFFFFF;stroke-width:3;stroke-miterlimit:10;}
</style>
<path class="st0" d="M164.7,24.1c0-3.4-2.4-6.3-5.8-6.9c0,0,0-0.1,0-0.1c0-3.9-3.2-7-7-7c-0.8,0-1.5,0.1-2.3,0.4c0-0.1,0-0.3,0-0.4
	c0-3.9-3.1-7-7-7l0,0h-33.2c-0.2,0-0.3,0-0.5,0c-0.2,0-0.3,0-0.5,0H25.2c-3.9,0-7,3.1-7,7l0,0c0,0.1,0,0.3,0,0.4
	c-3.7-1.3-7.7,0.7-8.9,4.4c-0.2,0.7-0.4,1.5-0.4,2.3v0.1c-3.8,0.7-6.3,4.4-5.6,8.2c0.5,2.8,2.8,5,5.6,5.6v0.1c0,3.9,3.2,7,7,7
	c0.8,0,1.5-0.1,2.3-0.4c0,0.1,0,0.3,0,0.4c0,3.9,3.1,7,7,7h83.2c0.2,0,0.3,0,0.5,0s0.3,0,0.5,0h33.2c3.9,0,7-3.1,7-7
	c0-0.1,0-0.3,0-0.4c3.7,1.3,7.7-0.7,8.9-4.4c0.2-0.7,0.4-1.5,0.4-2.3c0,0,0-0.1,0-0.1C162.2,30.4,164.6,27.5,164.7,24.1z"/>
</svg>
