<?xml version="1.0" encoding="utf-8"?>
<!-- Generator: Adobe Illustrator 22.1.0, SVG Export Plug-In . SVG Version: 6.00 Build 0)  -->
<svg version="1.1" id="Layer_1" xmlns="http://www.w3.org/2000/svg" xmlns:xlink="http://www.w3.org/1999/xlink" x="0px" y="0px"
	 viewBox="0 0 271.9 252.5" style="enable-background:new 0 0 271.9 252.5;" xml:space="preserve">
<style type="text/css">
	.st0{fill:#FFFFFF;}
</style>
<path class="st0" d="M37.5,249.3h-6.7V48.8h13.5v186.4c14.8-3.2,25.3-16.2,25.3-31.3V51.3c0-17.7-14.4-32-32-32H2V5.8h35.5
	C62.6,5.8,83,26.2,83,51.3v152.5C83,228.9,62.6,249.3,37.5,249.3z"/>
<rect x="99.5" y="5" class="st0" width="13.5" height="245.5"/>
<polygon class="st0" points="173.8,249.3 128.2,249.3 165.9,19.2 136.1,19.2 136.1,5.8 181.8,5.8 144.1,235.8 173.8,235.8 "/>
<path class="st0" d="M239.6,247.5h-13.5V19.2h-7.9c-4.4,0-7.9,3.5-7.9,7.9v220.4h-13.5V27.1c0-11.7,9.5-21.3,21.3-21.3h21.3
	L239.6,247.5z"/>
<rect x="203.8" y="79" class="st0" width="65.8" height="13.5"/>
</svg>
